G04 #@! TF.GenerationSoftware,KiCad,Pcbnew,(6.0.7)*
G04 #@! TF.CreationDate,2022-08-24T05:43:28-04:00*
G04 #@! TF.ProjectId,control temperatura,636f6e74-726f-46c2-9074-656d70657261,rev?*
G04 #@! TF.SameCoordinates,Original*
G04 #@! TF.FileFunction,Legend,Top*
G04 #@! TF.FilePolarity,Positive*
%FSLAX46Y46*%
G04 Gerber Fmt 4.6, Leading zero omitted, Abs format (unit mm)*
G04 Created by KiCad (PCBNEW (6.0.7)) date 2022-08-24 05:43:28*
%MOMM*%
%LPD*%
G01*
G04 APERTURE LIST*
%ADD10C,0.150000*%
%ADD11C,0.120000*%
G04 APERTURE END LIST*
D10*
X114414166Y-54931500D02*
X114380833Y-54964833D01*
X114280833Y-54998166D01*
X114214166Y-54998166D01*
X114114166Y-54964833D01*
X114047500Y-54898166D01*
X114014166Y-54831500D01*
X113980833Y-54698166D01*
X113980833Y-54598166D01*
X114014166Y-54464833D01*
X114047500Y-54398166D01*
X114114166Y-54331500D01*
X114214166Y-54298166D01*
X114280833Y-54298166D01*
X114380833Y-54331500D01*
X114414166Y-54364833D01*
X114814166Y-54998166D02*
X114747500Y-54964833D01*
X114714166Y-54931500D01*
X114680833Y-54864833D01*
X114680833Y-54664833D01*
X114714166Y-54598166D01*
X114747500Y-54564833D01*
X114814166Y-54531500D01*
X114914166Y-54531500D01*
X114980833Y-54564833D01*
X115014166Y-54598166D01*
X115047500Y-54664833D01*
X115047500Y-54864833D01*
X115014166Y-54931500D01*
X114980833Y-54964833D01*
X114914166Y-54998166D01*
X114814166Y-54998166D01*
X115347500Y-54531500D02*
X115347500Y-54998166D01*
X115347500Y-54598166D02*
X115380833Y-54564833D01*
X115447500Y-54531500D01*
X115547500Y-54531500D01*
X115614166Y-54564833D01*
X115647500Y-54631500D01*
X115647500Y-54998166D01*
X115880833Y-54531500D02*
X116147500Y-54531500D01*
X115980833Y-54298166D02*
X115980833Y-54898166D01*
X116014166Y-54964833D01*
X116080833Y-54998166D01*
X116147500Y-54998166D01*
X116380833Y-54998166D02*
X116380833Y-54531500D01*
X116380833Y-54664833D02*
X116414166Y-54598166D01*
X116447500Y-54564833D01*
X116514166Y-54531500D01*
X116580833Y-54531500D01*
X116914166Y-54998166D02*
X116847500Y-54964833D01*
X116814166Y-54931500D01*
X116780833Y-54864833D01*
X116780833Y-54664833D01*
X116814166Y-54598166D01*
X116847500Y-54564833D01*
X116914166Y-54531500D01*
X117014166Y-54531500D01*
X117080833Y-54564833D01*
X117114166Y-54598166D01*
X117147500Y-54664833D01*
X117147500Y-54864833D01*
X117114166Y-54931500D01*
X117080833Y-54964833D01*
X117014166Y-54998166D01*
X116914166Y-54998166D01*
X117547500Y-54998166D02*
X117480833Y-54964833D01*
X117447500Y-54898166D01*
X117447500Y-54298166D01*
X118347500Y-54998166D02*
X118347500Y-54298166D01*
X118514166Y-54298166D01*
X118614166Y-54331500D01*
X118680833Y-54398166D01*
X118714166Y-54464833D01*
X118747500Y-54598166D01*
X118747500Y-54698166D01*
X118714166Y-54831500D01*
X118680833Y-54898166D01*
X118614166Y-54964833D01*
X118514166Y-54998166D01*
X118347500Y-54998166D01*
X119047500Y-54998166D02*
X119047500Y-54531500D01*
X119047500Y-54298166D02*
X119014166Y-54331500D01*
X119047500Y-54364833D01*
X119080833Y-54331500D01*
X119047500Y-54298166D01*
X119047500Y-54364833D01*
X119680833Y-54531500D02*
X119680833Y-55098166D01*
X119647500Y-55164833D01*
X119614166Y-55198166D01*
X119547500Y-55231500D01*
X119447500Y-55231500D01*
X119380833Y-55198166D01*
X119680833Y-54964833D02*
X119614166Y-54998166D01*
X119480833Y-54998166D01*
X119414166Y-54964833D01*
X119380833Y-54931500D01*
X119347500Y-54864833D01*
X119347500Y-54664833D01*
X119380833Y-54598166D01*
X119414166Y-54564833D01*
X119480833Y-54531500D01*
X119614166Y-54531500D01*
X119680833Y-54564833D01*
X120014166Y-54998166D02*
X120014166Y-54531500D01*
X120014166Y-54298166D02*
X119980833Y-54331500D01*
X120014166Y-54364833D01*
X120047500Y-54331500D01*
X120014166Y-54298166D01*
X120014166Y-54364833D01*
X120247500Y-54531500D02*
X120514166Y-54531500D01*
X120347500Y-54298166D02*
X120347500Y-54898166D01*
X120380833Y-54964833D01*
X120447500Y-54998166D01*
X120514166Y-54998166D01*
X121047500Y-54998166D02*
X121047500Y-54631500D01*
X121014166Y-54564833D01*
X120947500Y-54531500D01*
X120814166Y-54531500D01*
X120747500Y-54564833D01*
X121047500Y-54964833D02*
X120980833Y-54998166D01*
X120814166Y-54998166D01*
X120747500Y-54964833D01*
X120714166Y-54898166D01*
X120714166Y-54831500D01*
X120747500Y-54764833D01*
X120814166Y-54731500D01*
X120980833Y-54731500D01*
X121047500Y-54698166D01*
X121480833Y-54998166D02*
X121414166Y-54964833D01*
X121380833Y-54898166D01*
X121380833Y-54298166D01*
X122180833Y-54298166D02*
X122414166Y-54998166D01*
X122647500Y-54298166D01*
X122880833Y-54931500D02*
X122914166Y-54964833D01*
X122880833Y-54998166D01*
X122847500Y-54964833D01*
X122880833Y-54931500D01*
X122880833Y-54998166D01*
X123180833Y-54364833D02*
X123214166Y-54331500D01*
X123280833Y-54298166D01*
X123447500Y-54298166D01*
X123514166Y-54331500D01*
X123547500Y-54364833D01*
X123580833Y-54431500D01*
X123580833Y-54498166D01*
X123547500Y-54598166D01*
X123147500Y-54998166D01*
X123580833Y-54998166D01*
X114414166Y-56058500D02*
X114380833Y-56091833D01*
X114280833Y-56125166D01*
X114214166Y-56125166D01*
X114114166Y-56091833D01*
X114047500Y-56025166D01*
X114014166Y-55958500D01*
X113980833Y-55825166D01*
X113980833Y-55725166D01*
X114014166Y-55591833D01*
X114047500Y-55525166D01*
X114114166Y-55458500D01*
X114214166Y-55425166D01*
X114280833Y-55425166D01*
X114380833Y-55458500D01*
X114414166Y-55491833D01*
X114714166Y-56125166D02*
X114714166Y-55658500D01*
X114714166Y-55791833D02*
X114747500Y-55725166D01*
X114780833Y-55691833D01*
X114847500Y-55658500D01*
X114914166Y-55658500D01*
X115147500Y-56125166D02*
X115147500Y-55658500D01*
X115147500Y-55425166D02*
X115114166Y-55458500D01*
X115147500Y-55491833D01*
X115180833Y-55458500D01*
X115147500Y-55425166D01*
X115147500Y-55491833D01*
X115447500Y-56091833D02*
X115514166Y-56125166D01*
X115647500Y-56125166D01*
X115714166Y-56091833D01*
X115747500Y-56025166D01*
X115747500Y-55991833D01*
X115714166Y-55925166D01*
X115647500Y-55891833D01*
X115547500Y-55891833D01*
X115480833Y-55858500D01*
X115447500Y-55791833D01*
X115447500Y-55758500D01*
X115480833Y-55691833D01*
X115547500Y-55658500D01*
X115647500Y-55658500D01*
X115714166Y-55691833D01*
X115947500Y-55658500D02*
X116214166Y-55658500D01*
X116047500Y-55425166D02*
X116047500Y-56025166D01*
X116080833Y-56091833D01*
X116147500Y-56125166D01*
X116214166Y-56125166D01*
X116447500Y-56125166D02*
X116447500Y-55658500D01*
X116447500Y-55425166D02*
X116414166Y-55458500D01*
X116447500Y-55491833D01*
X116480833Y-55458500D01*
X116447500Y-55425166D01*
X116447500Y-55491833D01*
X117080833Y-56125166D02*
X117080833Y-55758500D01*
X117047500Y-55691833D01*
X116980833Y-55658500D01*
X116847500Y-55658500D01*
X116780833Y-55691833D01*
X117080833Y-56091833D02*
X117014166Y-56125166D01*
X116847500Y-56125166D01*
X116780833Y-56091833D01*
X116747500Y-56025166D01*
X116747500Y-55958500D01*
X116780833Y-55891833D01*
X116847500Y-55858500D01*
X117014166Y-55858500D01*
X117080833Y-55825166D01*
X117414166Y-55658500D02*
X117414166Y-56125166D01*
X117414166Y-55725166D02*
X117447500Y-55691833D01*
X117514166Y-55658500D01*
X117614166Y-55658500D01*
X117680833Y-55691833D01*
X117714166Y-55758500D01*
X117714166Y-56125166D01*
X118980833Y-56058500D02*
X118947500Y-56091833D01*
X118847500Y-56125166D01*
X118780833Y-56125166D01*
X118680833Y-56091833D01*
X118614166Y-56025166D01*
X118580833Y-55958500D01*
X118547500Y-55825166D01*
X118547500Y-55725166D01*
X118580833Y-55591833D01*
X118614166Y-55525166D01*
X118680833Y-55458500D01*
X118780833Y-55425166D01*
X118847500Y-55425166D01*
X118947500Y-55458500D01*
X118980833Y-55491833D01*
X119580833Y-56125166D02*
X119580833Y-55758500D01*
X119547500Y-55691833D01*
X119480833Y-55658500D01*
X119347500Y-55658500D01*
X119280833Y-55691833D01*
X119580833Y-56091833D02*
X119514166Y-56125166D01*
X119347500Y-56125166D01*
X119280833Y-56091833D01*
X119247500Y-56025166D01*
X119247500Y-55958500D01*
X119280833Y-55891833D01*
X119347500Y-55858500D01*
X119514166Y-55858500D01*
X119580833Y-55825166D01*
X119880833Y-56091833D02*
X119947500Y-56125166D01*
X120080833Y-56125166D01*
X120147500Y-56091833D01*
X120180833Y-56025166D01*
X120180833Y-55991833D01*
X120147500Y-55925166D01*
X120080833Y-55891833D01*
X119980833Y-55891833D01*
X119914166Y-55858500D01*
X119880833Y-55791833D01*
X119880833Y-55758500D01*
X119914166Y-55691833D01*
X119980833Y-55658500D01*
X120080833Y-55658500D01*
X120147500Y-55691833D01*
X120380833Y-55658500D02*
X120647500Y-55658500D01*
X120480833Y-55425166D02*
X120480833Y-56025166D01*
X120514166Y-56091833D01*
X120580833Y-56125166D01*
X120647500Y-56125166D01*
X120880833Y-56125166D02*
X120880833Y-55658500D01*
X120880833Y-55791833D02*
X120914166Y-55725166D01*
X120947500Y-55691833D01*
X121014166Y-55658500D01*
X121080833Y-55658500D01*
X121414166Y-56125166D02*
X121347500Y-56091833D01*
X121314166Y-56058500D01*
X121280833Y-55991833D01*
X121280833Y-55791833D01*
X121314166Y-55725166D01*
X121347500Y-55691833D01*
X121414166Y-55658500D01*
X121514166Y-55658500D01*
X121580833Y-55691833D01*
X121614166Y-55725166D01*
X121647500Y-55791833D01*
X121647500Y-55991833D01*
X121614166Y-56058500D01*
X121580833Y-56091833D01*
X121514166Y-56125166D01*
X121414166Y-56125166D01*
X122814166Y-56125166D02*
X122480833Y-56125166D01*
X122480833Y-55425166D01*
X123347500Y-56125166D02*
X123347500Y-55758500D01*
X123314166Y-55691833D01*
X123247500Y-55658500D01*
X123114166Y-55658500D01*
X123047500Y-55691833D01*
X123347500Y-56091833D02*
X123280833Y-56125166D01*
X123114166Y-56125166D01*
X123047500Y-56091833D01*
X123014166Y-56025166D01*
X123014166Y-55958500D01*
X123047500Y-55891833D01*
X123114166Y-55858500D01*
X123280833Y-55858500D01*
X123347500Y-55825166D01*
X123980833Y-55658500D02*
X123980833Y-56225166D01*
X123947500Y-56291833D01*
X123914166Y-56325166D01*
X123847500Y-56358500D01*
X123747500Y-56358500D01*
X123680833Y-56325166D01*
X123980833Y-56091833D02*
X123914166Y-56125166D01*
X123780833Y-56125166D01*
X123714166Y-56091833D01*
X123680833Y-56058500D01*
X123647500Y-55991833D01*
X123647500Y-55791833D01*
X123680833Y-55725166D01*
X123714166Y-55691833D01*
X123780833Y-55658500D01*
X123914166Y-55658500D01*
X123980833Y-55691833D01*
X124414166Y-56125166D02*
X124347500Y-56091833D01*
X124314166Y-56058500D01*
X124280833Y-55991833D01*
X124280833Y-55791833D01*
X124314166Y-55725166D01*
X124347500Y-55691833D01*
X124414166Y-55658500D01*
X124514166Y-55658500D01*
X124580833Y-55691833D01*
X124614166Y-55725166D01*
X124647500Y-55791833D01*
X124647500Y-55991833D01*
X124614166Y-56058500D01*
X124580833Y-56091833D01*
X124514166Y-56125166D01*
X124414166Y-56125166D01*
X124914166Y-56091833D02*
X124980833Y-56125166D01*
X125114166Y-56125166D01*
X125180833Y-56091833D01*
X125214166Y-56025166D01*
X125214166Y-55991833D01*
X125180833Y-55925166D01*
X125114166Y-55891833D01*
X125014166Y-55891833D01*
X124947500Y-55858500D01*
X124914166Y-55791833D01*
X124914166Y-55758500D01*
X124947500Y-55691833D01*
X125014166Y-55658500D01*
X125114166Y-55658500D01*
X125180833Y-55691833D01*
X144216666Y-68452380D02*
X144216666Y-69166666D01*
X144169047Y-69309523D01*
X144073809Y-69404761D01*
X143930952Y-69452380D01*
X143835714Y-69452380D01*
X144692857Y-69452380D02*
X144692857Y-68452380D01*
X145073809Y-68452380D01*
X145169047Y-68500000D01*
X145216666Y-68547619D01*
X145264285Y-68642857D01*
X145264285Y-68785714D01*
X145216666Y-68880952D01*
X145169047Y-68928571D01*
X145073809Y-68976190D01*
X144692857Y-68976190D01*
X146121428Y-68785714D02*
X146121428Y-69452380D01*
X145883333Y-68404761D02*
X145645238Y-69119047D01*
X146264285Y-69119047D01*
X137716666Y-68452380D02*
X137716666Y-69166666D01*
X137669047Y-69309523D01*
X137573809Y-69404761D01*
X137430952Y-69452380D01*
X137335714Y-69452380D01*
X138192857Y-69452380D02*
X138192857Y-68452380D01*
X138573809Y-68452380D01*
X138669047Y-68500000D01*
X138716666Y-68547619D01*
X138764285Y-68642857D01*
X138764285Y-68785714D01*
X138716666Y-68880952D01*
X138669047Y-68928571D01*
X138573809Y-68976190D01*
X138192857Y-68976190D01*
X139145238Y-68547619D02*
X139192857Y-68500000D01*
X139288095Y-68452380D01*
X139526190Y-68452380D01*
X139621428Y-68500000D01*
X139669047Y-68547619D01*
X139716666Y-68642857D01*
X139716666Y-68738095D01*
X139669047Y-68880952D01*
X139097619Y-69452380D01*
X139716666Y-69452380D01*
X122769333Y-62471380D02*
X122436000Y-61995190D01*
X122197904Y-62471380D02*
X122197904Y-61471380D01*
X122578857Y-61471380D01*
X122674095Y-61519000D01*
X122721714Y-61566619D01*
X122769333Y-61661857D01*
X122769333Y-61804714D01*
X122721714Y-61899952D01*
X122674095Y-61947571D01*
X122578857Y-61995190D01*
X122197904Y-61995190D01*
X123150285Y-61566619D02*
X123197904Y-61519000D01*
X123293142Y-61471380D01*
X123531238Y-61471380D01*
X123626476Y-61519000D01*
X123674095Y-61566619D01*
X123721714Y-61661857D01*
X123721714Y-61757095D01*
X123674095Y-61899952D01*
X123102666Y-62471380D01*
X123721714Y-62471380D01*
X152304761Y-62523619D02*
X152209523Y-62476000D01*
X152114285Y-62380761D01*
X151971428Y-62237904D01*
X151876190Y-62190285D01*
X151780952Y-62190285D01*
X151828571Y-62428380D02*
X151733333Y-62380761D01*
X151638095Y-62285523D01*
X151590476Y-62095047D01*
X151590476Y-61761714D01*
X151638095Y-61571238D01*
X151733333Y-61476000D01*
X151828571Y-61428380D01*
X152019047Y-61428380D01*
X152114285Y-61476000D01*
X152209523Y-61571238D01*
X152257142Y-61761714D01*
X152257142Y-62095047D01*
X152209523Y-62285523D01*
X152114285Y-62380761D01*
X152019047Y-62428380D01*
X151828571Y-62428380D01*
X152638095Y-61523619D02*
X152685714Y-61476000D01*
X152780952Y-61428380D01*
X153019047Y-61428380D01*
X153114285Y-61476000D01*
X153161904Y-61523619D01*
X153209523Y-61618857D01*
X153209523Y-61714095D01*
X153161904Y-61856952D01*
X152590476Y-62428380D01*
X153209523Y-62428380D01*
X149416666Y-68452380D02*
X149416666Y-69166666D01*
X149369047Y-69309523D01*
X149273809Y-69404761D01*
X149130952Y-69452380D01*
X149035714Y-69452380D01*
X149892857Y-69452380D02*
X149892857Y-68452380D01*
X150273809Y-68452380D01*
X150369047Y-68500000D01*
X150416666Y-68547619D01*
X150464285Y-68642857D01*
X150464285Y-68785714D01*
X150416666Y-68880952D01*
X150369047Y-68928571D01*
X150273809Y-68976190D01*
X149892857Y-68976190D01*
X150797619Y-68452380D02*
X151416666Y-68452380D01*
X151083333Y-68833333D01*
X151226190Y-68833333D01*
X151321428Y-68880952D01*
X151369047Y-68928571D01*
X151416666Y-69023809D01*
X151416666Y-69261904D01*
X151369047Y-69357142D01*
X151321428Y-69404761D01*
X151226190Y-69452380D01*
X150940476Y-69452380D01*
X150845238Y-69404761D01*
X150797619Y-69357142D01*
X138199904Y-66492380D02*
X138199904Y-65492380D01*
X138438000Y-65492380D01*
X138580857Y-65540000D01*
X138676095Y-65635238D01*
X138723714Y-65730476D01*
X138771333Y-65920952D01*
X138771333Y-66063809D01*
X138723714Y-66254285D01*
X138676095Y-66349523D01*
X138580857Y-66444761D01*
X138438000Y-66492380D01*
X138199904Y-66492380D01*
X139723714Y-66492380D02*
X139152285Y-66492380D01*
X139438000Y-66492380D02*
X139438000Y-65492380D01*
X139342761Y-65635238D01*
X139247523Y-65730476D01*
X139152285Y-65778095D01*
X123987666Y-72699380D02*
X123987666Y-73413666D01*
X123940047Y-73556523D01*
X123844809Y-73651761D01*
X123701952Y-73699380D01*
X123606714Y-73699380D01*
X124463857Y-73699380D02*
X124463857Y-72699380D01*
X124844809Y-72699380D01*
X124940047Y-72747000D01*
X124987666Y-72794619D01*
X125035285Y-72889857D01*
X125035285Y-73032714D01*
X124987666Y-73127952D01*
X124940047Y-73175571D01*
X124844809Y-73223190D01*
X124463857Y-73223190D01*
X125987666Y-73699380D02*
X125416238Y-73699380D01*
X125701952Y-73699380D02*
X125701952Y-72699380D01*
X125606714Y-72842238D01*
X125511476Y-72937476D01*
X125416238Y-72985095D01*
X144684761Y-55340619D02*
X144589523Y-55293000D01*
X144494285Y-55197761D01*
X144351428Y-55054904D01*
X144256190Y-55007285D01*
X144160952Y-55007285D01*
X144208571Y-55245380D02*
X144113333Y-55197761D01*
X144018095Y-55102523D01*
X143970476Y-54912047D01*
X143970476Y-54578714D01*
X144018095Y-54388238D01*
X144113333Y-54293000D01*
X144208571Y-54245380D01*
X144399047Y-54245380D01*
X144494285Y-54293000D01*
X144589523Y-54388238D01*
X144637142Y-54578714D01*
X144637142Y-54912047D01*
X144589523Y-55102523D01*
X144494285Y-55197761D01*
X144399047Y-55245380D01*
X144208571Y-55245380D01*
X145589523Y-55245380D02*
X145018095Y-55245380D01*
X145303809Y-55245380D02*
X145303809Y-54245380D01*
X145208571Y-54388238D01*
X145113333Y-54483476D01*
X145018095Y-54531095D01*
X133437333Y-56629380D02*
X133104000Y-56153190D01*
X132865904Y-56629380D02*
X132865904Y-55629380D01*
X133246857Y-55629380D01*
X133342095Y-55677000D01*
X133389714Y-55724619D01*
X133437333Y-55819857D01*
X133437333Y-55962714D01*
X133389714Y-56057952D01*
X133342095Y-56105571D01*
X133246857Y-56153190D01*
X132865904Y-56153190D01*
X134389714Y-56629380D02*
X133818285Y-56629380D01*
X134104000Y-56629380D02*
X134104000Y-55629380D01*
X134008761Y-55772238D01*
X133913523Y-55867476D01*
X133818285Y-55915095D01*
X142720000Y-70600000D02*
X143220000Y-70100000D01*
X147320000Y-71400000D02*
X146820000Y-71900000D01*
X146820000Y-70100000D02*
X147320000Y-70600000D01*
X143220000Y-70100000D02*
X146820000Y-70100000D01*
X143220000Y-71900000D02*
X142720000Y-71400000D01*
X142720000Y-71400000D02*
X142720000Y-70600000D01*
X147320000Y-70600000D02*
X147320000Y-71400000D01*
X146820000Y-71900000D02*
X143220000Y-71900000D01*
X136220000Y-70600000D02*
X136720000Y-70100000D01*
X140820000Y-71400000D02*
X140320000Y-71900000D01*
X140320000Y-70100000D02*
X140820000Y-70600000D01*
X136720000Y-70100000D02*
X140320000Y-70100000D01*
X136720000Y-71900000D02*
X136220000Y-71400000D01*
X136220000Y-71400000D02*
X136220000Y-70600000D01*
X140820000Y-70600000D02*
X140820000Y-71400000D01*
X140320000Y-71900000D02*
X136720000Y-71900000D01*
D11*
X126976000Y-64389000D02*
X126206000Y-64389000D01*
X126206000Y-63019000D02*
X119666000Y-63019000D01*
X119666000Y-63019000D02*
X119666000Y-65759000D01*
X119666000Y-65759000D02*
X126206000Y-65759000D01*
X126206000Y-65759000D02*
X126206000Y-63019000D01*
X118896000Y-64389000D02*
X119666000Y-64389000D01*
X146790000Y-65350000D02*
X150390000Y-65350000D01*
X148590000Y-60899999D02*
G75*
G03*
X146751522Y-65338478I0J-2600001D01*
G01*
X150428478Y-65338478D02*
G75*
G03*
X148590000Y-60900000I-1838478J1838478D01*
G01*
D10*
X148680000Y-70600000D02*
X149180000Y-70100000D01*
X148680000Y-71400000D02*
X148680000Y-70600000D01*
X153280000Y-70600000D02*
X153280000Y-71400000D01*
X152780000Y-71900000D02*
X149180000Y-71900000D01*
X149180000Y-70100000D02*
X152780000Y-70100000D01*
X149180000Y-71900000D02*
X148680000Y-71400000D01*
X152780000Y-70100000D02*
X153280000Y-70600000D01*
X153280000Y-71400000D02*
X152780000Y-71900000D01*
D11*
X136672000Y-68093000D02*
X136672000Y-65003000D01*
X136672000Y-65003170D02*
G75*
G03*
X131122000Y-66548462I-2560000J-1544830D01*
G01*
X131122000Y-66547538D02*
G75*
G03*
X136672000Y-68092830I2990000J-462D01*
G01*
X136612000Y-66548000D02*
G75*
G03*
X136612000Y-66548000I-2500000J0D01*
G01*
D10*
X124335000Y-70347000D02*
X124835000Y-70847000D01*
X124835000Y-70847000D02*
X124835000Y-71647000D01*
X120235000Y-71647000D02*
X120235000Y-70847000D01*
X120735000Y-72147000D02*
X120235000Y-71647000D01*
X124335000Y-72147000D02*
X120735000Y-72147000D01*
X120235000Y-70847000D02*
X120735000Y-70347000D01*
X124835000Y-71647000D02*
X124335000Y-72147000D01*
X120735000Y-70347000D02*
X124335000Y-70347000D01*
D11*
X150695000Y-56095000D02*
X150695000Y-57605000D01*
X143724000Y-56095000D02*
X143724000Y-60736000D01*
X143724000Y-56095000D02*
X153964000Y-56095000D01*
X143724000Y-60736000D02*
X153964000Y-60736000D01*
X143724000Y-57605000D02*
X153964000Y-57605000D01*
X153964000Y-56095000D02*
X153964000Y-60736000D01*
X146994000Y-56095000D02*
X146994000Y-57605000D01*
X130334000Y-57177000D02*
X130334000Y-59917000D01*
X136874000Y-57177000D02*
X130334000Y-57177000D01*
X137644000Y-58547000D02*
X136874000Y-58547000D01*
X130334000Y-59917000D02*
X136874000Y-59917000D01*
X129564000Y-58547000D02*
X130334000Y-58547000D01*
X136874000Y-59917000D02*
X136874000Y-57177000D01*
M02*
