G04 #@! TF.GenerationSoftware,KiCad,Pcbnew,9.0.0*
G04 #@! TF.CreationDate,2025-10-07T06:41:58-03:00*
G04 #@! TF.ProjectId,control temperatura_v3,636f6e74-726f-46c2-9074-656d70657261,rev?*
G04 #@! TF.SameCoordinates,Original*
G04 #@! TF.FileFunction,Legend,Top*
G04 #@! TF.FilePolarity,Positive*
%FSLAX46Y46*%
G04 Gerber Fmt 4.6, Leading zero omitted, Abs format (unit mm)*
G04 Created by KiCad (PCBNEW 9.0.0) date 2025-10-07 06:41:58*
%MOMM*%
%LPD*%
G01*
G04 APERTURE LIST*
%ADD10C,0.150000*%
%ADD11C,0.254000*%
%ADD12C,0.120000*%
%ADD13C,0.100000*%
%ADD14C,0.200000*%
G04 APERTURE END LIST*
D10*
X145268519Y-78058207D02*
X145306614Y-77982017D01*
X145306614Y-77982017D02*
X145306614Y-77867731D01*
X145306614Y-77867731D02*
X145268519Y-77753445D01*
X145268519Y-77753445D02*
X145192329Y-77677255D01*
X145192329Y-77677255D02*
X145116138Y-77639160D01*
X145116138Y-77639160D02*
X144963757Y-77601064D01*
X144963757Y-77601064D02*
X144849471Y-77601064D01*
X144849471Y-77601064D02*
X144697090Y-77639160D01*
X144697090Y-77639160D02*
X144620900Y-77677255D01*
X144620900Y-77677255D02*
X144544710Y-77753445D01*
X144544710Y-77753445D02*
X144506614Y-77867731D01*
X144506614Y-77867731D02*
X144506614Y-77943922D01*
X144506614Y-77943922D02*
X144544710Y-78058207D01*
X144544710Y-78058207D02*
X144582805Y-78096303D01*
X144582805Y-78096303D02*
X144849471Y-78096303D01*
X144849471Y-78096303D02*
X144849471Y-77943922D01*
X144506614Y-78439160D02*
X145306614Y-78439160D01*
X145306614Y-78439160D02*
X144506614Y-78896303D01*
X144506614Y-78896303D02*
X145306614Y-78896303D01*
X144506614Y-79277255D02*
X145306614Y-79277255D01*
X145306614Y-79277255D02*
X145306614Y-79467731D01*
X145306614Y-79467731D02*
X145268519Y-79582017D01*
X145268519Y-79582017D02*
X145192329Y-79658207D01*
X145192329Y-79658207D02*
X145116138Y-79696302D01*
X145116138Y-79696302D02*
X144963757Y-79734398D01*
X144963757Y-79734398D02*
X144849471Y-79734398D01*
X144849471Y-79734398D02*
X144697090Y-79696302D01*
X144697090Y-79696302D02*
X144620900Y-79658207D01*
X144620900Y-79658207D02*
X144544710Y-79582017D01*
X144544710Y-79582017D02*
X144506614Y-79467731D01*
X144506614Y-79467731D02*
X144506614Y-79277255D01*
X142159276Y-77601064D02*
X142159276Y-77982017D01*
X141930704Y-77524874D02*
X142730704Y-77791541D01*
X142730704Y-77791541D02*
X141930704Y-78058207D01*
X141930704Y-78782017D02*
X142311657Y-78515350D01*
X141930704Y-78324874D02*
X142730704Y-78324874D01*
X142730704Y-78324874D02*
X142730704Y-78629636D01*
X142730704Y-78629636D02*
X142692609Y-78705826D01*
X142692609Y-78705826D02*
X142654514Y-78743921D01*
X142654514Y-78743921D02*
X142578323Y-78782017D01*
X142578323Y-78782017D02*
X142464038Y-78782017D01*
X142464038Y-78782017D02*
X142387847Y-78743921D01*
X142387847Y-78743921D02*
X142349752Y-78705826D01*
X142349752Y-78705826D02*
X142311657Y-78629636D01*
X142311657Y-78629636D02*
X142311657Y-78324874D01*
X142349752Y-79124874D02*
X142349752Y-79391540D01*
X141930704Y-79505826D02*
X141930704Y-79124874D01*
X141930704Y-79124874D02*
X142730704Y-79124874D01*
X142730704Y-79124874D02*
X142730704Y-79505826D01*
X142349752Y-80115350D02*
X142349752Y-79848684D01*
X141930704Y-79848684D02*
X142730704Y-79848684D01*
X142730704Y-79848684D02*
X142730704Y-80229636D01*
X149885186Y-77451064D02*
X149885186Y-77832017D01*
X149656614Y-77374874D02*
X150456614Y-77641541D01*
X150456614Y-77641541D02*
X149656614Y-77908207D01*
X150456614Y-78327255D02*
X150456614Y-78403445D01*
X150456614Y-78403445D02*
X150418519Y-78479636D01*
X150418519Y-78479636D02*
X150380424Y-78517731D01*
X150380424Y-78517731D02*
X150304233Y-78555826D01*
X150304233Y-78555826D02*
X150151852Y-78593921D01*
X150151852Y-78593921D02*
X149961376Y-78593921D01*
X149961376Y-78593921D02*
X149808995Y-78555826D01*
X149808995Y-78555826D02*
X149732805Y-78517731D01*
X149732805Y-78517731D02*
X149694710Y-78479636D01*
X149694710Y-78479636D02*
X149656614Y-78403445D01*
X149656614Y-78403445D02*
X149656614Y-78327255D01*
X149656614Y-78327255D02*
X149694710Y-78251064D01*
X149694710Y-78251064D02*
X149732805Y-78212969D01*
X149732805Y-78212969D02*
X149808995Y-78174874D01*
X149808995Y-78174874D02*
X149961376Y-78136778D01*
X149961376Y-78136778D02*
X150151852Y-78136778D01*
X150151852Y-78136778D02*
X150304233Y-78174874D01*
X150304233Y-78174874D02*
X150380424Y-78212969D01*
X150380424Y-78212969D02*
X150418519Y-78251064D01*
X150418519Y-78251064D02*
X150456614Y-78327255D01*
X147880704Y-77412969D02*
X147880704Y-77908207D01*
X147880704Y-77908207D02*
X147575942Y-77641541D01*
X147575942Y-77641541D02*
X147575942Y-77755826D01*
X147575942Y-77755826D02*
X147537847Y-77832017D01*
X147537847Y-77832017D02*
X147499752Y-77870112D01*
X147499752Y-77870112D02*
X147423561Y-77908207D01*
X147423561Y-77908207D02*
X147233085Y-77908207D01*
X147233085Y-77908207D02*
X147156895Y-77870112D01*
X147156895Y-77870112D02*
X147118800Y-77832017D01*
X147118800Y-77832017D02*
X147080704Y-77755826D01*
X147080704Y-77755826D02*
X147080704Y-77527255D01*
X147080704Y-77527255D02*
X147118800Y-77451064D01*
X147118800Y-77451064D02*
X147156895Y-77412969D01*
X147156895Y-78251065D02*
X147118800Y-78289160D01*
X147118800Y-78289160D02*
X147080704Y-78251065D01*
X147080704Y-78251065D02*
X147118800Y-78212969D01*
X147118800Y-78212969D02*
X147156895Y-78251065D01*
X147156895Y-78251065D02*
X147080704Y-78251065D01*
X147880704Y-78555826D02*
X147880704Y-79051064D01*
X147880704Y-79051064D02*
X147575942Y-78784398D01*
X147575942Y-78784398D02*
X147575942Y-78898683D01*
X147575942Y-78898683D02*
X147537847Y-78974874D01*
X147537847Y-78974874D02*
X147499752Y-79012969D01*
X147499752Y-79012969D02*
X147423561Y-79051064D01*
X147423561Y-79051064D02*
X147233085Y-79051064D01*
X147233085Y-79051064D02*
X147156895Y-79012969D01*
X147156895Y-79012969D02*
X147118800Y-78974874D01*
X147118800Y-78974874D02*
X147080704Y-78898683D01*
X147080704Y-78898683D02*
X147080704Y-78670112D01*
X147080704Y-78670112D02*
X147118800Y-78593921D01*
X147118800Y-78593921D02*
X147156895Y-78555826D01*
X147880704Y-79279636D02*
X147080704Y-79546303D01*
X147080704Y-79546303D02*
X147880704Y-79812969D01*
X124921303Y-55067127D02*
X124883207Y-55105223D01*
X124883207Y-55105223D02*
X124768922Y-55143318D01*
X124768922Y-55143318D02*
X124692731Y-55143318D01*
X124692731Y-55143318D02*
X124578445Y-55105223D01*
X124578445Y-55105223D02*
X124502255Y-55029032D01*
X124502255Y-55029032D02*
X124464160Y-54952842D01*
X124464160Y-54952842D02*
X124426064Y-54800461D01*
X124426064Y-54800461D02*
X124426064Y-54686175D01*
X124426064Y-54686175D02*
X124464160Y-54533794D01*
X124464160Y-54533794D02*
X124502255Y-54457603D01*
X124502255Y-54457603D02*
X124578445Y-54381413D01*
X124578445Y-54381413D02*
X124692731Y-54343318D01*
X124692731Y-54343318D02*
X124768922Y-54343318D01*
X124768922Y-54343318D02*
X124883207Y-54381413D01*
X124883207Y-54381413D02*
X124921303Y-54419508D01*
X125378445Y-55143318D02*
X125302255Y-55105223D01*
X125302255Y-55105223D02*
X125264160Y-55067127D01*
X125264160Y-55067127D02*
X125226064Y-54990937D01*
X125226064Y-54990937D02*
X125226064Y-54762365D01*
X125226064Y-54762365D02*
X125264160Y-54686175D01*
X125264160Y-54686175D02*
X125302255Y-54648080D01*
X125302255Y-54648080D02*
X125378445Y-54609984D01*
X125378445Y-54609984D02*
X125492731Y-54609984D01*
X125492731Y-54609984D02*
X125568922Y-54648080D01*
X125568922Y-54648080D02*
X125607017Y-54686175D01*
X125607017Y-54686175D02*
X125645112Y-54762365D01*
X125645112Y-54762365D02*
X125645112Y-54990937D01*
X125645112Y-54990937D02*
X125607017Y-55067127D01*
X125607017Y-55067127D02*
X125568922Y-55105223D01*
X125568922Y-55105223D02*
X125492731Y-55143318D01*
X125492731Y-55143318D02*
X125378445Y-55143318D01*
X125987970Y-54609984D02*
X125987970Y-55143318D01*
X125987970Y-54686175D02*
X126026065Y-54648080D01*
X126026065Y-54648080D02*
X126102255Y-54609984D01*
X126102255Y-54609984D02*
X126216541Y-54609984D01*
X126216541Y-54609984D02*
X126292732Y-54648080D01*
X126292732Y-54648080D02*
X126330827Y-54724270D01*
X126330827Y-54724270D02*
X126330827Y-55143318D01*
X126597494Y-54609984D02*
X126902256Y-54609984D01*
X126711780Y-54343318D02*
X126711780Y-55029032D01*
X126711780Y-55029032D02*
X126749875Y-55105223D01*
X126749875Y-55105223D02*
X126826065Y-55143318D01*
X126826065Y-55143318D02*
X126902256Y-55143318D01*
X127168923Y-55143318D02*
X127168923Y-54609984D01*
X127168923Y-54762365D02*
X127207018Y-54686175D01*
X127207018Y-54686175D02*
X127245113Y-54648080D01*
X127245113Y-54648080D02*
X127321304Y-54609984D01*
X127321304Y-54609984D02*
X127397494Y-54609984D01*
X127778446Y-55143318D02*
X127702256Y-55105223D01*
X127702256Y-55105223D02*
X127664161Y-55067127D01*
X127664161Y-55067127D02*
X127626065Y-54990937D01*
X127626065Y-54990937D02*
X127626065Y-54762365D01*
X127626065Y-54762365D02*
X127664161Y-54686175D01*
X127664161Y-54686175D02*
X127702256Y-54648080D01*
X127702256Y-54648080D02*
X127778446Y-54609984D01*
X127778446Y-54609984D02*
X127892732Y-54609984D01*
X127892732Y-54609984D02*
X127968923Y-54648080D01*
X127968923Y-54648080D02*
X128007018Y-54686175D01*
X128007018Y-54686175D02*
X128045113Y-54762365D01*
X128045113Y-54762365D02*
X128045113Y-54990937D01*
X128045113Y-54990937D02*
X128007018Y-55067127D01*
X128007018Y-55067127D02*
X127968923Y-55105223D01*
X127968923Y-55105223D02*
X127892732Y-55143318D01*
X127892732Y-55143318D02*
X127778446Y-55143318D01*
X128502256Y-55143318D02*
X128426066Y-55105223D01*
X128426066Y-55105223D02*
X128387971Y-55029032D01*
X128387971Y-55029032D02*
X128387971Y-54343318D01*
X129416543Y-55143318D02*
X129416543Y-54343318D01*
X129416543Y-54343318D02*
X129607019Y-54343318D01*
X129607019Y-54343318D02*
X129721305Y-54381413D01*
X129721305Y-54381413D02*
X129797495Y-54457603D01*
X129797495Y-54457603D02*
X129835590Y-54533794D01*
X129835590Y-54533794D02*
X129873686Y-54686175D01*
X129873686Y-54686175D02*
X129873686Y-54800461D01*
X129873686Y-54800461D02*
X129835590Y-54952842D01*
X129835590Y-54952842D02*
X129797495Y-55029032D01*
X129797495Y-55029032D02*
X129721305Y-55105223D01*
X129721305Y-55105223D02*
X129607019Y-55143318D01*
X129607019Y-55143318D02*
X129416543Y-55143318D01*
X130216543Y-55143318D02*
X130216543Y-54609984D01*
X130216543Y-54343318D02*
X130178447Y-54381413D01*
X130178447Y-54381413D02*
X130216543Y-54419508D01*
X130216543Y-54419508D02*
X130254638Y-54381413D01*
X130254638Y-54381413D02*
X130216543Y-54343318D01*
X130216543Y-54343318D02*
X130216543Y-54419508D01*
X130940352Y-54609984D02*
X130940352Y-55257603D01*
X130940352Y-55257603D02*
X130902257Y-55333794D01*
X130902257Y-55333794D02*
X130864161Y-55371889D01*
X130864161Y-55371889D02*
X130787971Y-55409984D01*
X130787971Y-55409984D02*
X130673685Y-55409984D01*
X130673685Y-55409984D02*
X130597495Y-55371889D01*
X130940352Y-55105223D02*
X130864161Y-55143318D01*
X130864161Y-55143318D02*
X130711780Y-55143318D01*
X130711780Y-55143318D02*
X130635590Y-55105223D01*
X130635590Y-55105223D02*
X130597495Y-55067127D01*
X130597495Y-55067127D02*
X130559399Y-54990937D01*
X130559399Y-54990937D02*
X130559399Y-54762365D01*
X130559399Y-54762365D02*
X130597495Y-54686175D01*
X130597495Y-54686175D02*
X130635590Y-54648080D01*
X130635590Y-54648080D02*
X130711780Y-54609984D01*
X130711780Y-54609984D02*
X130864161Y-54609984D01*
X130864161Y-54609984D02*
X130940352Y-54648080D01*
X131321305Y-55143318D02*
X131321305Y-54609984D01*
X131321305Y-54343318D02*
X131283209Y-54381413D01*
X131283209Y-54381413D02*
X131321305Y-54419508D01*
X131321305Y-54419508D02*
X131359400Y-54381413D01*
X131359400Y-54381413D02*
X131321305Y-54343318D01*
X131321305Y-54343318D02*
X131321305Y-54419508D01*
X131587971Y-54609984D02*
X131892733Y-54609984D01*
X131702257Y-54343318D02*
X131702257Y-55029032D01*
X131702257Y-55029032D02*
X131740352Y-55105223D01*
X131740352Y-55105223D02*
X131816542Y-55143318D01*
X131816542Y-55143318D02*
X131892733Y-55143318D01*
X132502257Y-55143318D02*
X132502257Y-54724270D01*
X132502257Y-54724270D02*
X132464162Y-54648080D01*
X132464162Y-54648080D02*
X132387971Y-54609984D01*
X132387971Y-54609984D02*
X132235590Y-54609984D01*
X132235590Y-54609984D02*
X132159400Y-54648080D01*
X132502257Y-55105223D02*
X132426066Y-55143318D01*
X132426066Y-55143318D02*
X132235590Y-55143318D01*
X132235590Y-55143318D02*
X132159400Y-55105223D01*
X132159400Y-55105223D02*
X132121304Y-55029032D01*
X132121304Y-55029032D02*
X132121304Y-54952842D01*
X132121304Y-54952842D02*
X132159400Y-54876651D01*
X132159400Y-54876651D02*
X132235590Y-54838556D01*
X132235590Y-54838556D02*
X132426066Y-54838556D01*
X132426066Y-54838556D02*
X132502257Y-54800461D01*
X132997495Y-55143318D02*
X132921305Y-55105223D01*
X132921305Y-55105223D02*
X132883210Y-55029032D01*
X132883210Y-55029032D02*
X132883210Y-54343318D01*
X133797496Y-54343318D02*
X134064163Y-55143318D01*
X134064163Y-55143318D02*
X134330829Y-54343318D01*
X134597496Y-55067127D02*
X134635591Y-55105223D01*
X134635591Y-55105223D02*
X134597496Y-55143318D01*
X134597496Y-55143318D02*
X134559400Y-55105223D01*
X134559400Y-55105223D02*
X134597496Y-55067127D01*
X134597496Y-55067127D02*
X134597496Y-55143318D01*
X134902257Y-54343318D02*
X135397495Y-54343318D01*
X135397495Y-54343318D02*
X135130829Y-54648080D01*
X135130829Y-54648080D02*
X135245114Y-54648080D01*
X135245114Y-54648080D02*
X135321305Y-54686175D01*
X135321305Y-54686175D02*
X135359400Y-54724270D01*
X135359400Y-54724270D02*
X135397495Y-54800461D01*
X135397495Y-54800461D02*
X135397495Y-54990937D01*
X135397495Y-54990937D02*
X135359400Y-55067127D01*
X135359400Y-55067127D02*
X135321305Y-55105223D01*
X135321305Y-55105223D02*
X135245114Y-55143318D01*
X135245114Y-55143318D02*
X135016543Y-55143318D01*
X135016543Y-55143318D02*
X134940352Y-55105223D01*
X134940352Y-55105223D02*
X134902257Y-55067127D01*
X124921303Y-56355082D02*
X124883207Y-56393178D01*
X124883207Y-56393178D02*
X124768922Y-56431273D01*
X124768922Y-56431273D02*
X124692731Y-56431273D01*
X124692731Y-56431273D02*
X124578445Y-56393178D01*
X124578445Y-56393178D02*
X124502255Y-56316987D01*
X124502255Y-56316987D02*
X124464160Y-56240797D01*
X124464160Y-56240797D02*
X124426064Y-56088416D01*
X124426064Y-56088416D02*
X124426064Y-55974130D01*
X124426064Y-55974130D02*
X124464160Y-55821749D01*
X124464160Y-55821749D02*
X124502255Y-55745558D01*
X124502255Y-55745558D02*
X124578445Y-55669368D01*
X124578445Y-55669368D02*
X124692731Y-55631273D01*
X124692731Y-55631273D02*
X124768922Y-55631273D01*
X124768922Y-55631273D02*
X124883207Y-55669368D01*
X124883207Y-55669368D02*
X124921303Y-55707463D01*
X125264160Y-56431273D02*
X125264160Y-55897939D01*
X125264160Y-56050320D02*
X125302255Y-55974130D01*
X125302255Y-55974130D02*
X125340350Y-55936035D01*
X125340350Y-55936035D02*
X125416541Y-55897939D01*
X125416541Y-55897939D02*
X125492731Y-55897939D01*
X125759398Y-56431273D02*
X125759398Y-55897939D01*
X125759398Y-55631273D02*
X125721302Y-55669368D01*
X125721302Y-55669368D02*
X125759398Y-55707463D01*
X125759398Y-55707463D02*
X125797493Y-55669368D01*
X125797493Y-55669368D02*
X125759398Y-55631273D01*
X125759398Y-55631273D02*
X125759398Y-55707463D01*
X126102254Y-56393178D02*
X126178445Y-56431273D01*
X126178445Y-56431273D02*
X126330826Y-56431273D01*
X126330826Y-56431273D02*
X126407016Y-56393178D01*
X126407016Y-56393178D02*
X126445112Y-56316987D01*
X126445112Y-56316987D02*
X126445112Y-56278892D01*
X126445112Y-56278892D02*
X126407016Y-56202701D01*
X126407016Y-56202701D02*
X126330826Y-56164606D01*
X126330826Y-56164606D02*
X126216540Y-56164606D01*
X126216540Y-56164606D02*
X126140350Y-56126511D01*
X126140350Y-56126511D02*
X126102254Y-56050320D01*
X126102254Y-56050320D02*
X126102254Y-56012225D01*
X126102254Y-56012225D02*
X126140350Y-55936035D01*
X126140350Y-55936035D02*
X126216540Y-55897939D01*
X126216540Y-55897939D02*
X126330826Y-55897939D01*
X126330826Y-55897939D02*
X126407016Y-55936035D01*
X126673683Y-55897939D02*
X126978445Y-55897939D01*
X126787969Y-55631273D02*
X126787969Y-56316987D01*
X126787969Y-56316987D02*
X126826064Y-56393178D01*
X126826064Y-56393178D02*
X126902254Y-56431273D01*
X126902254Y-56431273D02*
X126978445Y-56431273D01*
X127245112Y-56431273D02*
X127245112Y-55897939D01*
X127245112Y-55631273D02*
X127207016Y-55669368D01*
X127207016Y-55669368D02*
X127245112Y-55707463D01*
X127245112Y-55707463D02*
X127283207Y-55669368D01*
X127283207Y-55669368D02*
X127245112Y-55631273D01*
X127245112Y-55631273D02*
X127245112Y-55707463D01*
X127968921Y-56431273D02*
X127968921Y-56012225D01*
X127968921Y-56012225D02*
X127930826Y-55936035D01*
X127930826Y-55936035D02*
X127854635Y-55897939D01*
X127854635Y-55897939D02*
X127702254Y-55897939D01*
X127702254Y-55897939D02*
X127626064Y-55936035D01*
X127968921Y-56393178D02*
X127892730Y-56431273D01*
X127892730Y-56431273D02*
X127702254Y-56431273D01*
X127702254Y-56431273D02*
X127626064Y-56393178D01*
X127626064Y-56393178D02*
X127587968Y-56316987D01*
X127587968Y-56316987D02*
X127587968Y-56240797D01*
X127587968Y-56240797D02*
X127626064Y-56164606D01*
X127626064Y-56164606D02*
X127702254Y-56126511D01*
X127702254Y-56126511D02*
X127892730Y-56126511D01*
X127892730Y-56126511D02*
X127968921Y-56088416D01*
X128349874Y-55897939D02*
X128349874Y-56431273D01*
X128349874Y-55974130D02*
X128387969Y-55936035D01*
X128387969Y-55936035D02*
X128464159Y-55897939D01*
X128464159Y-55897939D02*
X128578445Y-55897939D01*
X128578445Y-55897939D02*
X128654636Y-55936035D01*
X128654636Y-55936035D02*
X128692731Y-56012225D01*
X128692731Y-56012225D02*
X128692731Y-56431273D01*
X130140351Y-56355082D02*
X130102255Y-56393178D01*
X130102255Y-56393178D02*
X129987970Y-56431273D01*
X129987970Y-56431273D02*
X129911779Y-56431273D01*
X129911779Y-56431273D02*
X129797493Y-56393178D01*
X129797493Y-56393178D02*
X129721303Y-56316987D01*
X129721303Y-56316987D02*
X129683208Y-56240797D01*
X129683208Y-56240797D02*
X129645112Y-56088416D01*
X129645112Y-56088416D02*
X129645112Y-55974130D01*
X129645112Y-55974130D02*
X129683208Y-55821749D01*
X129683208Y-55821749D02*
X129721303Y-55745558D01*
X129721303Y-55745558D02*
X129797493Y-55669368D01*
X129797493Y-55669368D02*
X129911779Y-55631273D01*
X129911779Y-55631273D02*
X129987970Y-55631273D01*
X129987970Y-55631273D02*
X130102255Y-55669368D01*
X130102255Y-55669368D02*
X130140351Y-55707463D01*
X130826065Y-56431273D02*
X130826065Y-56012225D01*
X130826065Y-56012225D02*
X130787970Y-55936035D01*
X130787970Y-55936035D02*
X130711779Y-55897939D01*
X130711779Y-55897939D02*
X130559398Y-55897939D01*
X130559398Y-55897939D02*
X130483208Y-55936035D01*
X130826065Y-56393178D02*
X130749874Y-56431273D01*
X130749874Y-56431273D02*
X130559398Y-56431273D01*
X130559398Y-56431273D02*
X130483208Y-56393178D01*
X130483208Y-56393178D02*
X130445112Y-56316987D01*
X130445112Y-56316987D02*
X130445112Y-56240797D01*
X130445112Y-56240797D02*
X130483208Y-56164606D01*
X130483208Y-56164606D02*
X130559398Y-56126511D01*
X130559398Y-56126511D02*
X130749874Y-56126511D01*
X130749874Y-56126511D02*
X130826065Y-56088416D01*
X131168922Y-56393178D02*
X131245113Y-56431273D01*
X131245113Y-56431273D02*
X131397494Y-56431273D01*
X131397494Y-56431273D02*
X131473684Y-56393178D01*
X131473684Y-56393178D02*
X131511780Y-56316987D01*
X131511780Y-56316987D02*
X131511780Y-56278892D01*
X131511780Y-56278892D02*
X131473684Y-56202701D01*
X131473684Y-56202701D02*
X131397494Y-56164606D01*
X131397494Y-56164606D02*
X131283208Y-56164606D01*
X131283208Y-56164606D02*
X131207018Y-56126511D01*
X131207018Y-56126511D02*
X131168922Y-56050320D01*
X131168922Y-56050320D02*
X131168922Y-56012225D01*
X131168922Y-56012225D02*
X131207018Y-55936035D01*
X131207018Y-55936035D02*
X131283208Y-55897939D01*
X131283208Y-55897939D02*
X131397494Y-55897939D01*
X131397494Y-55897939D02*
X131473684Y-55936035D01*
X131740351Y-55897939D02*
X132045113Y-55897939D01*
X131854637Y-55631273D02*
X131854637Y-56316987D01*
X131854637Y-56316987D02*
X131892732Y-56393178D01*
X131892732Y-56393178D02*
X131968922Y-56431273D01*
X131968922Y-56431273D02*
X132045113Y-56431273D01*
X132311780Y-56431273D02*
X132311780Y-55897939D01*
X132311780Y-56050320D02*
X132349875Y-55974130D01*
X132349875Y-55974130D02*
X132387970Y-55936035D01*
X132387970Y-55936035D02*
X132464161Y-55897939D01*
X132464161Y-55897939D02*
X132540351Y-55897939D01*
X132921303Y-56431273D02*
X132845113Y-56393178D01*
X132845113Y-56393178D02*
X132807018Y-56355082D01*
X132807018Y-56355082D02*
X132768922Y-56278892D01*
X132768922Y-56278892D02*
X132768922Y-56050320D01*
X132768922Y-56050320D02*
X132807018Y-55974130D01*
X132807018Y-55974130D02*
X132845113Y-55936035D01*
X132845113Y-55936035D02*
X132921303Y-55897939D01*
X132921303Y-55897939D02*
X133035589Y-55897939D01*
X133035589Y-55897939D02*
X133111780Y-55936035D01*
X133111780Y-55936035D02*
X133149875Y-55974130D01*
X133149875Y-55974130D02*
X133187970Y-56050320D01*
X133187970Y-56050320D02*
X133187970Y-56278892D01*
X133187970Y-56278892D02*
X133149875Y-56355082D01*
X133149875Y-56355082D02*
X133111780Y-56393178D01*
X133111780Y-56393178D02*
X133035589Y-56431273D01*
X133035589Y-56431273D02*
X132921303Y-56431273D01*
X134521304Y-56431273D02*
X134140352Y-56431273D01*
X134140352Y-56431273D02*
X134140352Y-55631273D01*
X135130828Y-56431273D02*
X135130828Y-56012225D01*
X135130828Y-56012225D02*
X135092733Y-55936035D01*
X135092733Y-55936035D02*
X135016542Y-55897939D01*
X135016542Y-55897939D02*
X134864161Y-55897939D01*
X134864161Y-55897939D02*
X134787971Y-55936035D01*
X135130828Y-56393178D02*
X135054637Y-56431273D01*
X135054637Y-56431273D02*
X134864161Y-56431273D01*
X134864161Y-56431273D02*
X134787971Y-56393178D01*
X134787971Y-56393178D02*
X134749875Y-56316987D01*
X134749875Y-56316987D02*
X134749875Y-56240797D01*
X134749875Y-56240797D02*
X134787971Y-56164606D01*
X134787971Y-56164606D02*
X134864161Y-56126511D01*
X134864161Y-56126511D02*
X135054637Y-56126511D01*
X135054637Y-56126511D02*
X135130828Y-56088416D01*
X135854638Y-55897939D02*
X135854638Y-56545558D01*
X135854638Y-56545558D02*
X135816543Y-56621749D01*
X135816543Y-56621749D02*
X135778447Y-56659844D01*
X135778447Y-56659844D02*
X135702257Y-56697939D01*
X135702257Y-56697939D02*
X135587971Y-56697939D01*
X135587971Y-56697939D02*
X135511781Y-56659844D01*
X135854638Y-56393178D02*
X135778447Y-56431273D01*
X135778447Y-56431273D02*
X135626066Y-56431273D01*
X135626066Y-56431273D02*
X135549876Y-56393178D01*
X135549876Y-56393178D02*
X135511781Y-56355082D01*
X135511781Y-56355082D02*
X135473685Y-56278892D01*
X135473685Y-56278892D02*
X135473685Y-56050320D01*
X135473685Y-56050320D02*
X135511781Y-55974130D01*
X135511781Y-55974130D02*
X135549876Y-55936035D01*
X135549876Y-55936035D02*
X135626066Y-55897939D01*
X135626066Y-55897939D02*
X135778447Y-55897939D01*
X135778447Y-55897939D02*
X135854638Y-55936035D01*
X136349876Y-56431273D02*
X136273686Y-56393178D01*
X136273686Y-56393178D02*
X136235591Y-56355082D01*
X136235591Y-56355082D02*
X136197495Y-56278892D01*
X136197495Y-56278892D02*
X136197495Y-56050320D01*
X136197495Y-56050320D02*
X136235591Y-55974130D01*
X136235591Y-55974130D02*
X136273686Y-55936035D01*
X136273686Y-55936035D02*
X136349876Y-55897939D01*
X136349876Y-55897939D02*
X136464162Y-55897939D01*
X136464162Y-55897939D02*
X136540353Y-55936035D01*
X136540353Y-55936035D02*
X136578448Y-55974130D01*
X136578448Y-55974130D02*
X136616543Y-56050320D01*
X136616543Y-56050320D02*
X136616543Y-56278892D01*
X136616543Y-56278892D02*
X136578448Y-56355082D01*
X136578448Y-56355082D02*
X136540353Y-56393178D01*
X136540353Y-56393178D02*
X136464162Y-56431273D01*
X136464162Y-56431273D02*
X136349876Y-56431273D01*
X136921305Y-56393178D02*
X136997496Y-56431273D01*
X136997496Y-56431273D02*
X137149877Y-56431273D01*
X137149877Y-56431273D02*
X137226067Y-56393178D01*
X137226067Y-56393178D02*
X137264163Y-56316987D01*
X137264163Y-56316987D02*
X137264163Y-56278892D01*
X137264163Y-56278892D02*
X137226067Y-56202701D01*
X137226067Y-56202701D02*
X137149877Y-56164606D01*
X137149877Y-56164606D02*
X137035591Y-56164606D01*
X137035591Y-56164606D02*
X136959401Y-56126511D01*
X136959401Y-56126511D02*
X136921305Y-56050320D01*
X136921305Y-56050320D02*
X136921305Y-56012225D01*
X136921305Y-56012225D02*
X136959401Y-55936035D01*
X136959401Y-55936035D02*
X137035591Y-55897939D01*
X137035591Y-55897939D02*
X137149877Y-55897939D01*
X137149877Y-55897939D02*
X137226067Y-55936035D01*
X140118519Y-77865476D02*
X140156614Y-77789286D01*
X140156614Y-77789286D02*
X140156614Y-77675000D01*
X140156614Y-77675000D02*
X140118519Y-77560714D01*
X140118519Y-77560714D02*
X140042329Y-77484524D01*
X140042329Y-77484524D02*
X139966138Y-77446429D01*
X139966138Y-77446429D02*
X139813757Y-77408333D01*
X139813757Y-77408333D02*
X139699471Y-77408333D01*
X139699471Y-77408333D02*
X139547090Y-77446429D01*
X139547090Y-77446429D02*
X139470900Y-77484524D01*
X139470900Y-77484524D02*
X139394710Y-77560714D01*
X139394710Y-77560714D02*
X139356614Y-77675000D01*
X139356614Y-77675000D02*
X139356614Y-77751191D01*
X139356614Y-77751191D02*
X139394710Y-77865476D01*
X139394710Y-77865476D02*
X139432805Y-77903572D01*
X139432805Y-77903572D02*
X139699471Y-77903572D01*
X139699471Y-77903572D02*
X139699471Y-77751191D01*
X139356614Y-78246429D02*
X140156614Y-78246429D01*
X140156614Y-78246429D02*
X139356614Y-78703572D01*
X139356614Y-78703572D02*
X140156614Y-78703572D01*
X139356614Y-79084524D02*
X140156614Y-79084524D01*
X140156614Y-79084524D02*
X140156614Y-79275000D01*
X140156614Y-79275000D02*
X140118519Y-79389286D01*
X140118519Y-79389286D02*
X140042329Y-79465476D01*
X140042329Y-79465476D02*
X139966138Y-79503571D01*
X139966138Y-79503571D02*
X139813757Y-79541667D01*
X139813757Y-79541667D02*
X139699471Y-79541667D01*
X139699471Y-79541667D02*
X139547090Y-79503571D01*
X139547090Y-79503571D02*
X139470900Y-79465476D01*
X139470900Y-79465476D02*
X139394710Y-79389286D01*
X139394710Y-79389286D02*
X139356614Y-79275000D01*
X139356614Y-79275000D02*
X139356614Y-79084524D01*
X137580704Y-77713095D02*
X137580704Y-77332143D01*
X137580704Y-77332143D02*
X137199752Y-77294047D01*
X137199752Y-77294047D02*
X137237847Y-77332143D01*
X137237847Y-77332143D02*
X137275942Y-77408333D01*
X137275942Y-77408333D02*
X137275942Y-77598809D01*
X137275942Y-77598809D02*
X137237847Y-77675000D01*
X137237847Y-77675000D02*
X137199752Y-77713095D01*
X137199752Y-77713095D02*
X137123561Y-77751190D01*
X137123561Y-77751190D02*
X136933085Y-77751190D01*
X136933085Y-77751190D02*
X136856895Y-77713095D01*
X136856895Y-77713095D02*
X136818800Y-77675000D01*
X136818800Y-77675000D02*
X136780704Y-77598809D01*
X136780704Y-77598809D02*
X136780704Y-77408333D01*
X136780704Y-77408333D02*
X136818800Y-77332143D01*
X136818800Y-77332143D02*
X136856895Y-77294047D01*
X137580704Y-77979762D02*
X136780704Y-78246429D01*
X136780704Y-78246429D02*
X137580704Y-78513095D01*
X135081614Y-77287969D02*
X135081614Y-77783207D01*
X135081614Y-77783207D02*
X134776852Y-77516541D01*
X134776852Y-77516541D02*
X134776852Y-77630826D01*
X134776852Y-77630826D02*
X134738757Y-77707017D01*
X134738757Y-77707017D02*
X134700662Y-77745112D01*
X134700662Y-77745112D02*
X134624471Y-77783207D01*
X134624471Y-77783207D02*
X134433995Y-77783207D01*
X134433995Y-77783207D02*
X134357805Y-77745112D01*
X134357805Y-77745112D02*
X134319710Y-77707017D01*
X134319710Y-77707017D02*
X134281614Y-77630826D01*
X134281614Y-77630826D02*
X134281614Y-77402255D01*
X134281614Y-77402255D02*
X134319710Y-77326064D01*
X134319710Y-77326064D02*
X134357805Y-77287969D01*
X131705704Y-77402255D02*
X131705704Y-77554636D01*
X131705704Y-77554636D02*
X131743800Y-77630826D01*
X131743800Y-77630826D02*
X131781895Y-77668922D01*
X131781895Y-77668922D02*
X131896180Y-77745112D01*
X131896180Y-77745112D02*
X132048561Y-77783207D01*
X132048561Y-77783207D02*
X132353323Y-77783207D01*
X132353323Y-77783207D02*
X132429514Y-77745112D01*
X132429514Y-77745112D02*
X132467609Y-77707017D01*
X132467609Y-77707017D02*
X132505704Y-77630826D01*
X132505704Y-77630826D02*
X132505704Y-77478445D01*
X132505704Y-77478445D02*
X132467609Y-77402255D01*
X132467609Y-77402255D02*
X132429514Y-77364160D01*
X132429514Y-77364160D02*
X132353323Y-77326064D01*
X132353323Y-77326064D02*
X132162847Y-77326064D01*
X132162847Y-77326064D02*
X132086657Y-77364160D01*
X132086657Y-77364160D02*
X132048561Y-77402255D01*
X132048561Y-77402255D02*
X132010466Y-77478445D01*
X132010466Y-77478445D02*
X132010466Y-77630826D01*
X132010466Y-77630826D02*
X132048561Y-77707017D01*
X132048561Y-77707017D02*
X132086657Y-77745112D01*
X132086657Y-77745112D02*
X132162847Y-77783207D01*
X134589160Y-80789533D02*
X135198684Y-80789533D01*
X135846302Y-80675247D02*
X135960588Y-80713342D01*
X135960588Y-80713342D02*
X135998683Y-80751438D01*
X135998683Y-80751438D02*
X136036779Y-80827628D01*
X136036779Y-80827628D02*
X136036779Y-80941914D01*
X136036779Y-80941914D02*
X135998683Y-81018104D01*
X135998683Y-81018104D02*
X135960588Y-81056200D01*
X135960588Y-81056200D02*
X135884398Y-81094295D01*
X135884398Y-81094295D02*
X135579636Y-81094295D01*
X135579636Y-81094295D02*
X135579636Y-80294295D01*
X135579636Y-80294295D02*
X135846302Y-80294295D01*
X135846302Y-80294295D02*
X135922493Y-80332390D01*
X135922493Y-80332390D02*
X135960588Y-80370485D01*
X135960588Y-80370485D02*
X135998683Y-80446676D01*
X135998683Y-80446676D02*
X135998683Y-80522866D01*
X135998683Y-80522866D02*
X135960588Y-80599057D01*
X135960588Y-80599057D02*
X135922493Y-80637152D01*
X135922493Y-80637152D02*
X135846302Y-80675247D01*
X135846302Y-80675247D02*
X135579636Y-80675247D01*
X136722493Y-81094295D02*
X136722493Y-80675247D01*
X136722493Y-80675247D02*
X136684398Y-80599057D01*
X136684398Y-80599057D02*
X136608207Y-80560961D01*
X136608207Y-80560961D02*
X136455826Y-80560961D01*
X136455826Y-80560961D02*
X136379636Y-80599057D01*
X136722493Y-81056200D02*
X136646302Y-81094295D01*
X136646302Y-81094295D02*
X136455826Y-81094295D01*
X136455826Y-81094295D02*
X136379636Y-81056200D01*
X136379636Y-81056200D02*
X136341540Y-80980009D01*
X136341540Y-80980009D02*
X136341540Y-80903819D01*
X136341540Y-80903819D02*
X136379636Y-80827628D01*
X136379636Y-80827628D02*
X136455826Y-80789533D01*
X136455826Y-80789533D02*
X136646302Y-80789533D01*
X136646302Y-80789533D02*
X136722493Y-80751438D01*
X136989160Y-80560961D02*
X137293922Y-80560961D01*
X137103446Y-80294295D02*
X137103446Y-80980009D01*
X137103446Y-80980009D02*
X137141541Y-81056200D01*
X137141541Y-81056200D02*
X137217731Y-81094295D01*
X137217731Y-81094295D02*
X137293922Y-81094295D01*
X137446303Y-80560961D02*
X137751065Y-80560961D01*
X137560589Y-80294295D02*
X137560589Y-80980009D01*
X137560589Y-80980009D02*
X137598684Y-81056200D01*
X137598684Y-81056200D02*
X137674874Y-81094295D01*
X137674874Y-81094295D02*
X137751065Y-81094295D01*
X138017732Y-81018104D02*
X138055827Y-81056200D01*
X138055827Y-81056200D02*
X138017732Y-81094295D01*
X138017732Y-81094295D02*
X137979636Y-81056200D01*
X137979636Y-81056200D02*
X138017732Y-81018104D01*
X138017732Y-81018104D02*
X138017732Y-81094295D01*
X139312970Y-81056200D02*
X139236779Y-81094295D01*
X139236779Y-81094295D02*
X139084398Y-81094295D01*
X139084398Y-81094295D02*
X139008208Y-81056200D01*
X139008208Y-81056200D02*
X138970112Y-80980009D01*
X138970112Y-80980009D02*
X138970112Y-80675247D01*
X138970112Y-80675247D02*
X139008208Y-80599057D01*
X139008208Y-80599057D02*
X139084398Y-80560961D01*
X139084398Y-80560961D02*
X139236779Y-80560961D01*
X139236779Y-80560961D02*
X139312970Y-80599057D01*
X139312970Y-80599057D02*
X139351065Y-80675247D01*
X139351065Y-80675247D02*
X139351065Y-80751438D01*
X139351065Y-80751438D02*
X138970112Y-80827628D01*
X139617731Y-81094295D02*
X140036779Y-80560961D01*
X139617731Y-80560961D02*
X140036779Y-81094295D01*
X140227255Y-80560961D02*
X140532017Y-80560961D01*
X140341541Y-80294295D02*
X140341541Y-80980009D01*
X140341541Y-80980009D02*
X140379636Y-81056200D01*
X140379636Y-81056200D02*
X140455826Y-81094295D01*
X140455826Y-81094295D02*
X140532017Y-81094295D01*
X140798684Y-81018104D02*
X140836779Y-81056200D01*
X140836779Y-81056200D02*
X140798684Y-81094295D01*
X140798684Y-81094295D02*
X140760588Y-81056200D01*
X140760588Y-81056200D02*
X140798684Y-81018104D01*
X140798684Y-81018104D02*
X140798684Y-81094295D01*
X141179636Y-80789533D02*
X141789160Y-80789533D01*
X151634819Y-75558333D02*
X152349104Y-75558333D01*
X152349104Y-75558333D02*
X152491961Y-75605952D01*
X152491961Y-75605952D02*
X152587200Y-75701190D01*
X152587200Y-75701190D02*
X152634819Y-75844047D01*
X152634819Y-75844047D02*
X152634819Y-75939285D01*
X152634819Y-74558333D02*
X152634819Y-75129761D01*
X152634819Y-74844047D02*
X151634819Y-74844047D01*
X151634819Y-74844047D02*
X151777676Y-74939285D01*
X151777676Y-74939285D02*
X151872914Y-75034523D01*
X151872914Y-75034523D02*
X151920533Y-75129761D01*
X128633333Y-70084819D02*
X128300000Y-69608628D01*
X128061905Y-70084819D02*
X128061905Y-69084819D01*
X128061905Y-69084819D02*
X128442857Y-69084819D01*
X128442857Y-69084819D02*
X128538095Y-69132438D01*
X128538095Y-69132438D02*
X128585714Y-69180057D01*
X128585714Y-69180057D02*
X128633333Y-69275295D01*
X128633333Y-69275295D02*
X128633333Y-69418152D01*
X128633333Y-69418152D02*
X128585714Y-69513390D01*
X128585714Y-69513390D02*
X128538095Y-69561009D01*
X128538095Y-69561009D02*
X128442857Y-69608628D01*
X128442857Y-69608628D02*
X128061905Y-69608628D01*
X129014286Y-69180057D02*
X129061905Y-69132438D01*
X129061905Y-69132438D02*
X129157143Y-69084819D01*
X129157143Y-69084819D02*
X129395238Y-69084819D01*
X129395238Y-69084819D02*
X129490476Y-69132438D01*
X129490476Y-69132438D02*
X129538095Y-69180057D01*
X129538095Y-69180057D02*
X129585714Y-69275295D01*
X129585714Y-69275295D02*
X129585714Y-69370533D01*
X129585714Y-69370533D02*
X129538095Y-69513390D01*
X129538095Y-69513390D02*
X128966667Y-70084819D01*
X128966667Y-70084819D02*
X129585714Y-70084819D01*
D11*
X153949318Y-63539762D02*
X152679318Y-63539762D01*
X153828365Y-62209285D02*
X153888842Y-62269761D01*
X153888842Y-62269761D02*
X153949318Y-62451190D01*
X153949318Y-62451190D02*
X153949318Y-62572142D01*
X153949318Y-62572142D02*
X153888842Y-62753571D01*
X153888842Y-62753571D02*
X153767889Y-62874523D01*
X153767889Y-62874523D02*
X153646937Y-62935000D01*
X153646937Y-62935000D02*
X153405032Y-62995476D01*
X153405032Y-62995476D02*
X153223603Y-62995476D01*
X153223603Y-62995476D02*
X152981699Y-62935000D01*
X152981699Y-62935000D02*
X152860746Y-62874523D01*
X152860746Y-62874523D02*
X152739794Y-62753571D01*
X152739794Y-62753571D02*
X152679318Y-62572142D01*
X152679318Y-62572142D02*
X152679318Y-62451190D01*
X152679318Y-62451190D02*
X152739794Y-62269761D01*
X152739794Y-62269761D02*
X152800270Y-62209285D01*
X153949318Y-60999761D02*
X153949318Y-61725476D01*
X153949318Y-61362619D02*
X152679318Y-61362619D01*
X152679318Y-61362619D02*
X152860746Y-61483571D01*
X152860746Y-61483571D02*
X152981699Y-61604523D01*
X152981699Y-61604523D02*
X153042175Y-61725476D01*
D10*
X133373905Y-70962819D02*
X133373905Y-69962819D01*
X133373905Y-69962819D02*
X133612000Y-69962819D01*
X133612000Y-69962819D02*
X133754857Y-70010438D01*
X133754857Y-70010438D02*
X133850095Y-70105676D01*
X133850095Y-70105676D02*
X133897714Y-70200914D01*
X133897714Y-70200914D02*
X133945333Y-70391390D01*
X133945333Y-70391390D02*
X133945333Y-70534247D01*
X133945333Y-70534247D02*
X133897714Y-70724723D01*
X133897714Y-70724723D02*
X133850095Y-70819961D01*
X133850095Y-70819961D02*
X133754857Y-70915200D01*
X133754857Y-70915200D02*
X133612000Y-70962819D01*
X133612000Y-70962819D02*
X133373905Y-70962819D01*
X134897714Y-70962819D02*
X134326286Y-70962819D01*
X134612000Y-70962819D02*
X134612000Y-69962819D01*
X134612000Y-69962819D02*
X134516762Y-70105676D01*
X134516762Y-70105676D02*
X134421524Y-70200914D01*
X134421524Y-70200914D02*
X134326286Y-70248533D01*
X148694761Y-55405057D02*
X148599523Y-55357438D01*
X148599523Y-55357438D02*
X148504285Y-55262200D01*
X148504285Y-55262200D02*
X148361428Y-55119342D01*
X148361428Y-55119342D02*
X148266190Y-55071723D01*
X148266190Y-55071723D02*
X148170952Y-55071723D01*
X148218571Y-55309819D02*
X148123333Y-55262200D01*
X148123333Y-55262200D02*
X148028095Y-55166961D01*
X148028095Y-55166961D02*
X147980476Y-54976485D01*
X147980476Y-54976485D02*
X147980476Y-54643152D01*
X147980476Y-54643152D02*
X148028095Y-54452676D01*
X148028095Y-54452676D02*
X148123333Y-54357438D01*
X148123333Y-54357438D02*
X148218571Y-54309819D01*
X148218571Y-54309819D02*
X148409047Y-54309819D01*
X148409047Y-54309819D02*
X148504285Y-54357438D01*
X148504285Y-54357438D02*
X148599523Y-54452676D01*
X148599523Y-54452676D02*
X148647142Y-54643152D01*
X148647142Y-54643152D02*
X148647142Y-54976485D01*
X148647142Y-54976485D02*
X148599523Y-55166961D01*
X148599523Y-55166961D02*
X148504285Y-55262200D01*
X148504285Y-55262200D02*
X148409047Y-55309819D01*
X148409047Y-55309819D02*
X148218571Y-55309819D01*
X149599523Y-55309819D02*
X149028095Y-55309819D01*
X149313809Y-55309819D02*
X149313809Y-54309819D01*
X149313809Y-54309819D02*
X149218571Y-54452676D01*
X149218571Y-54452676D02*
X149123333Y-54547914D01*
X149123333Y-54547914D02*
X149028095Y-54595533D01*
X152433333Y-67084580D02*
X152385714Y-67132200D01*
X152385714Y-67132200D02*
X152242857Y-67179819D01*
X152242857Y-67179819D02*
X152147619Y-67179819D01*
X152147619Y-67179819D02*
X152004762Y-67132200D01*
X152004762Y-67132200D02*
X151909524Y-67036961D01*
X151909524Y-67036961D02*
X151861905Y-66941723D01*
X151861905Y-66941723D02*
X151814286Y-66751247D01*
X151814286Y-66751247D02*
X151814286Y-66608390D01*
X151814286Y-66608390D02*
X151861905Y-66417914D01*
X151861905Y-66417914D02*
X151909524Y-66322676D01*
X151909524Y-66322676D02*
X152004762Y-66227438D01*
X152004762Y-66227438D02*
X152147619Y-66179819D01*
X152147619Y-66179819D02*
X152242857Y-66179819D01*
X152242857Y-66179819D02*
X152385714Y-66227438D01*
X152385714Y-66227438D02*
X152433333Y-66275057D01*
X153385714Y-67179819D02*
X152814286Y-67179819D01*
X153100000Y-67179819D02*
X153100000Y-66179819D01*
X153100000Y-66179819D02*
X153004762Y-66322676D01*
X153004762Y-66322676D02*
X152909524Y-66417914D01*
X152909524Y-66417914D02*
X152814286Y-66465533D01*
X138108333Y-58909819D02*
X137775000Y-58433628D01*
X137536905Y-58909819D02*
X137536905Y-57909819D01*
X137536905Y-57909819D02*
X137917857Y-57909819D01*
X137917857Y-57909819D02*
X138013095Y-57957438D01*
X138013095Y-57957438D02*
X138060714Y-58005057D01*
X138060714Y-58005057D02*
X138108333Y-58100295D01*
X138108333Y-58100295D02*
X138108333Y-58243152D01*
X138108333Y-58243152D02*
X138060714Y-58338390D01*
X138060714Y-58338390D02*
X138013095Y-58386009D01*
X138013095Y-58386009D02*
X137917857Y-58433628D01*
X137917857Y-58433628D02*
X137536905Y-58433628D01*
X139060714Y-58909819D02*
X138489286Y-58909819D01*
X138775000Y-58909819D02*
X138775000Y-57909819D01*
X138775000Y-57909819D02*
X138679762Y-58052676D01*
X138679762Y-58052676D02*
X138584524Y-58147914D01*
X138584524Y-58147914D02*
X138489286Y-58195533D01*
D12*
X151180000Y-73895000D02*
X151180000Y-75225000D01*
X149850000Y-73895000D02*
X151180000Y-73895000D01*
X148580000Y-73895000D02*
X130740000Y-73895000D01*
X148580000Y-73895000D02*
X148580000Y-76555000D01*
X130740000Y-73895000D02*
X130740000Y-76555000D01*
X148580000Y-76555000D02*
X130740000Y-76555000D01*
X128072936Y-70540000D02*
X129527064Y-70540000D01*
X128072936Y-72360000D02*
X129527064Y-72360000D01*
D13*
X145950000Y-64225000D02*
X145950000Y-64225000D01*
X146050000Y-64225000D02*
X146050000Y-64225000D01*
D14*
X146920000Y-65425000D02*
X150920000Y-65425000D01*
D13*
X145950000Y-64225000D02*
G75*
G02*
X146050000Y-64225000I50000J0D01*
G01*
X146050000Y-64225000D02*
G75*
G02*
X145950000Y-64225000I-50000J0D01*
G01*
D12*
X136672000Y-68093000D02*
X136672000Y-65003000D01*
X131122000Y-66547952D02*
G75*
G02*
X136672000Y-65003170I2990000J-48D01*
G01*
X136672000Y-68092830D02*
G75*
G02*
X131122000Y-66548048I-2560000J1544830D01*
G01*
X136612000Y-66548000D02*
G75*
G02*
X131612000Y-66548000I-2500000J0D01*
G01*
X131612000Y-66548000D02*
G75*
G02*
X136612000Y-66548000I2500000J0D01*
G01*
X143670000Y-55855000D02*
X143670000Y-60496000D01*
X143670000Y-55855000D02*
X153910000Y-55855000D01*
X143670000Y-57365000D02*
X153910000Y-57365000D01*
X143670000Y-60496000D02*
X153910000Y-60496000D01*
X146940000Y-55855000D02*
X146940000Y-57365000D01*
X150641000Y-55855000D02*
X150641000Y-57365000D01*
X153910000Y-55855000D02*
X153910000Y-60496000D01*
X148413748Y-66890000D02*
X149836252Y-66890000D01*
X148413748Y-68710000D02*
X149836252Y-68710000D01*
X137547936Y-59365000D02*
X139002064Y-59365000D01*
X137547936Y-61185000D02*
X139002064Y-61185000D01*
M02*
