G04 #@! TF.GenerationSoftware,KiCad,Pcbnew,9.0.0*
G04 #@! TF.CreationDate,2025-10-07T06:41:58-03:00*
G04 #@! TF.ProjectId,control temperatura_v3,636f6e74-726f-46c2-9074-656d70657261,rev?*
G04 #@! TF.SameCoordinates,Original*
G04 #@! TF.FileFunction,Copper,L1,Top*
G04 #@! TF.FilePolarity,Positive*
%FSLAX46Y46*%
G04 Gerber Fmt 4.6, Leading zero omitted, Abs format (unit mm)*
G04 Created by KiCad (PCBNEW 9.0.0) date 2025-10-07 06:41:58*
%MOMM*%
%LPD*%
G01*
G04 APERTURE LIST*
G04 Aperture macros list*
%AMRoundRect*
0 Rectangle with rounded corners*
0 $1 Rounding radius*
0 $2 $3 $4 $5 $6 $7 $8 $9 X,Y pos of 4 corners*
0 Add a 4 corners polygon primitive as box body*
4,1,4,$2,$3,$4,$5,$6,$7,$8,$9,$2,$3,0*
0 Add four circle primitives for the rounded corners*
1,1,$1+$1,$2,$3*
1,1,$1+$1,$4,$5*
1,1,$1+$1,$6,$7*
1,1,$1+$1,$8,$9*
0 Add four rect primitives between the rounded corners*
20,1,$1+$1,$2,$3,$4,$5,0*
20,1,$1+$1,$4,$5,$6,$7,0*
20,1,$1+$1,$6,$7,$8,$9,0*
20,1,$1+$1,$8,$9,$2,$3,0*%
G04 Aperture macros list end*
G04 #@! TA.AperFunction,ComponentPad*
%ADD10R,1.700000X1.700000*%
G04 #@! TD*
G04 #@! TA.AperFunction,ComponentPad*
%ADD11O,1.700000X1.700000*%
G04 #@! TD*
G04 #@! TA.AperFunction,SMDPad,CuDef*
%ADD12RoundRect,0.250000X-0.400000X-0.625000X0.400000X-0.625000X0.400000X0.625000X-0.400000X0.625000X0*%
G04 #@! TD*
G04 #@! TA.AperFunction,ComponentPad*
%ADD13R,1.200000X1.200000*%
G04 #@! TD*
G04 #@! TA.AperFunction,ComponentPad*
%ADD14C,1.200000*%
G04 #@! TD*
G04 #@! TA.AperFunction,ComponentPad*
%ADD15C,1.365000*%
G04 #@! TD*
G04 #@! TA.AperFunction,ComponentPad*
%ADD16R,1.800000X1.800000*%
G04 #@! TD*
G04 #@! TA.AperFunction,ComponentPad*
%ADD17C,1.800000*%
G04 #@! TD*
G04 #@! TA.AperFunction,ComponentPad*
%ADD18R,1.905000X2.000000*%
G04 #@! TD*
G04 #@! TA.AperFunction,ComponentPad*
%ADD19O,1.905000X2.000000*%
G04 #@! TD*
G04 #@! TA.AperFunction,SMDPad,CuDef*
%ADD20RoundRect,0.250000X-0.412500X-0.650000X0.412500X-0.650000X0.412500X0.650000X-0.412500X0.650000X0*%
G04 #@! TD*
G04 #@! TA.AperFunction,ViaPad*
%ADD21C,0.800000*%
G04 #@! TD*
G04 #@! TA.AperFunction,Conductor*
%ADD22C,0.300000*%
G04 #@! TD*
G04 #@! TA.AperFunction,Conductor*
%ADD23C,0.500000*%
G04 #@! TD*
G04 APERTURE END LIST*
D10*
X149850000Y-75225000D03*
D11*
X147310000Y-75225000D03*
X144770000Y-75225000D03*
X142230000Y-75225000D03*
X139690000Y-75225000D03*
X137150000Y-75225000D03*
X134610000Y-75225000D03*
X132070000Y-75225000D03*
D12*
X127250000Y-71450000D03*
X130350000Y-71450000D03*
D13*
X147650000Y-64225000D03*
D14*
X148920000Y-62955000D03*
D15*
X150190000Y-64225000D03*
D16*
X135382000Y-66548000D03*
D17*
X132842000Y-66548000D03*
D18*
X146250000Y-59125000D03*
D19*
X148790000Y-59125000D03*
X151330000Y-59125000D03*
D20*
X147562500Y-67800000D03*
X150687500Y-67800000D03*
D12*
X136725000Y-60275000D03*
X139825000Y-60275000D03*
D21*
X153175000Y-67925000D03*
D22*
X132842000Y-66548000D02*
X132842000Y-70608000D01*
X132842000Y-70608000D02*
X132000000Y-71450000D01*
X132000000Y-71450000D02*
X130350000Y-71450000D01*
X154475000Y-73575000D02*
X152825000Y-75225000D01*
X148920000Y-62955000D02*
X152430000Y-62955000D01*
X154475000Y-65000000D02*
X154475000Y-73575000D01*
X152430000Y-62955000D02*
X154475000Y-65000000D01*
X152825000Y-75225000D02*
X149850000Y-75225000D01*
D23*
X153175000Y-67925000D02*
X150812500Y-67925000D01*
X145975000Y-61375000D02*
X147875000Y-61375000D01*
X147875000Y-61375000D02*
X148790000Y-60460000D01*
X137150000Y-70200000D02*
X145975000Y-61375000D01*
X137150000Y-75225000D02*
X137150000Y-70200000D01*
X148790000Y-60460000D02*
X148790000Y-59125000D01*
X145550000Y-67600000D02*
X145550000Y-66406000D01*
X146350000Y-64225000D02*
X145550000Y-65025000D01*
X142125000Y-67575000D02*
X142125000Y-75120000D01*
X145550000Y-66406000D02*
X143294000Y-66406000D01*
X147562500Y-67800000D02*
X145750000Y-67800000D01*
X147562500Y-71387500D02*
X147310000Y-71640000D01*
X147650000Y-64225000D02*
X146350000Y-64225000D01*
X145750000Y-67800000D02*
X145550000Y-67600000D01*
X147562500Y-67800000D02*
X147562500Y-71387500D01*
X145550000Y-65025000D02*
X145550000Y-66406000D01*
X143294000Y-66406000D02*
X142125000Y-67575000D01*
X147310000Y-71640000D02*
X147310000Y-75225000D01*
D22*
X142462000Y-59125000D02*
X141312000Y-60275000D01*
X141312000Y-60275000D02*
X139825000Y-60275000D01*
X146250000Y-59125000D02*
X142462000Y-59125000D01*
X126650000Y-78225000D02*
X126650000Y-78250000D01*
X127150000Y-60275000D02*
X136725000Y-60275000D01*
X134610000Y-75225000D02*
X134610000Y-76890000D01*
X134610000Y-76890000D02*
X133275000Y-78225000D01*
X125450000Y-77050000D02*
X125450000Y-61975000D01*
X133275000Y-78225000D02*
X126650000Y-78225000D01*
X126650000Y-78250000D02*
X125450000Y-77050000D01*
X125450000Y-61975000D02*
X127150000Y-60275000D01*
X127800000Y-75425000D02*
X131870000Y-75425000D01*
X127250000Y-74875000D02*
X127800000Y-75425000D01*
X127250000Y-71450000D02*
X127250000Y-74875000D01*
M02*
