G04 #@! TF.GenerationSoftware,KiCad,Pcbnew,9.0.0*
G04 #@! TF.CreationDate,2025-10-07T06:41:58-03:00*
G04 #@! TF.ProjectId,control temperatura_v3,636f6e74-726f-46c2-9074-656d70657261,rev?*
G04 #@! TF.SameCoordinates,Original*
G04 #@! TF.FileFunction,AssemblyDrawing,Top*
%FSLAX46Y46*%
G04 Gerber Fmt 4.6, Leading zero omitted, Abs format (unit mm)*
G04 Created by KiCad (PCBNEW 9.0.0) date 2025-10-07 06:41:58*
%MOMM*%
%LPD*%
G01*
G04 APERTURE LIST*
%ADD10C,0.150000*%
%ADD11C,0.120000*%
%ADD12C,0.254000*%
%ADD13C,0.100000*%
G04 APERTURE END LIST*
D10*
X130099580Y-81820239D02*
X130147200Y-81867858D01*
X130147200Y-81867858D02*
X130194819Y-82010715D01*
X130194819Y-82010715D02*
X130194819Y-82105953D01*
X130194819Y-82105953D02*
X130147200Y-82248810D01*
X130147200Y-82248810D02*
X130051961Y-82344048D01*
X130051961Y-82344048D02*
X129956723Y-82391667D01*
X129956723Y-82391667D02*
X129766247Y-82439286D01*
X129766247Y-82439286D02*
X129623390Y-82439286D01*
X129623390Y-82439286D02*
X129432914Y-82391667D01*
X129432914Y-82391667D02*
X129337676Y-82344048D01*
X129337676Y-82344048D02*
X129242438Y-82248810D01*
X129242438Y-82248810D02*
X129194819Y-82105953D01*
X129194819Y-82105953D02*
X129194819Y-82010715D01*
X129194819Y-82010715D02*
X129242438Y-81867858D01*
X129242438Y-81867858D02*
X129290057Y-81820239D01*
X130194819Y-81248810D02*
X130147200Y-81344048D01*
X130147200Y-81344048D02*
X130099580Y-81391667D01*
X130099580Y-81391667D02*
X130004342Y-81439286D01*
X130004342Y-81439286D02*
X129718628Y-81439286D01*
X129718628Y-81439286D02*
X129623390Y-81391667D01*
X129623390Y-81391667D02*
X129575771Y-81344048D01*
X129575771Y-81344048D02*
X129528152Y-81248810D01*
X129528152Y-81248810D02*
X129528152Y-81105953D01*
X129528152Y-81105953D02*
X129575771Y-81010715D01*
X129575771Y-81010715D02*
X129623390Y-80963096D01*
X129623390Y-80963096D02*
X129718628Y-80915477D01*
X129718628Y-80915477D02*
X130004342Y-80915477D01*
X130004342Y-80915477D02*
X130099580Y-80963096D01*
X130099580Y-80963096D02*
X130147200Y-81010715D01*
X130147200Y-81010715D02*
X130194819Y-81105953D01*
X130194819Y-81105953D02*
X130194819Y-81248810D01*
X129528152Y-80486905D02*
X130194819Y-80486905D01*
X129623390Y-80486905D02*
X129575771Y-80439286D01*
X129575771Y-80439286D02*
X129528152Y-80344048D01*
X129528152Y-80344048D02*
X129528152Y-80201191D01*
X129528152Y-80201191D02*
X129575771Y-80105953D01*
X129575771Y-80105953D02*
X129671009Y-80058334D01*
X129671009Y-80058334D02*
X130194819Y-80058334D01*
X129528152Y-79582143D02*
X130194819Y-79582143D01*
X129623390Y-79582143D02*
X129575771Y-79534524D01*
X129575771Y-79534524D02*
X129528152Y-79439286D01*
X129528152Y-79439286D02*
X129528152Y-79296429D01*
X129528152Y-79296429D02*
X129575771Y-79201191D01*
X129575771Y-79201191D02*
X129671009Y-79153572D01*
X129671009Y-79153572D02*
X130194819Y-79153572D01*
X130290057Y-78915477D02*
X130290057Y-78153572D01*
X129194819Y-77725000D02*
X129194819Y-77629762D01*
X129194819Y-77629762D02*
X129242438Y-77534524D01*
X129242438Y-77534524D02*
X129290057Y-77486905D01*
X129290057Y-77486905D02*
X129385295Y-77439286D01*
X129385295Y-77439286D02*
X129575771Y-77391667D01*
X129575771Y-77391667D02*
X129813866Y-77391667D01*
X129813866Y-77391667D02*
X130004342Y-77439286D01*
X130004342Y-77439286D02*
X130099580Y-77486905D01*
X130099580Y-77486905D02*
X130147200Y-77534524D01*
X130147200Y-77534524D02*
X130194819Y-77629762D01*
X130194819Y-77629762D02*
X130194819Y-77725000D01*
X130194819Y-77725000D02*
X130147200Y-77820238D01*
X130147200Y-77820238D02*
X130099580Y-77867857D01*
X130099580Y-77867857D02*
X130004342Y-77915476D01*
X130004342Y-77915476D02*
X129813866Y-77963095D01*
X129813866Y-77963095D02*
X129575771Y-77963095D01*
X129575771Y-77963095D02*
X129385295Y-77915476D01*
X129385295Y-77915476D02*
X129290057Y-77867857D01*
X129290057Y-77867857D02*
X129242438Y-77820238D01*
X129242438Y-77820238D02*
X129194819Y-77725000D01*
X130194819Y-76439286D02*
X130194819Y-77010714D01*
X130194819Y-76725000D02*
X129194819Y-76725000D01*
X129194819Y-76725000D02*
X129337676Y-76820238D01*
X129337676Y-76820238D02*
X129432914Y-76915476D01*
X129432914Y-76915476D02*
X129480533Y-77010714D01*
X130194819Y-76105952D02*
X129528152Y-75582143D01*
X129528152Y-76105952D02*
X130194819Y-75582143D01*
X129194819Y-75010714D02*
X129194819Y-74915476D01*
X129194819Y-74915476D02*
X129242438Y-74820238D01*
X129242438Y-74820238D02*
X129290057Y-74772619D01*
X129290057Y-74772619D02*
X129385295Y-74725000D01*
X129385295Y-74725000D02*
X129575771Y-74677381D01*
X129575771Y-74677381D02*
X129813866Y-74677381D01*
X129813866Y-74677381D02*
X130004342Y-74725000D01*
X130004342Y-74725000D02*
X130099580Y-74772619D01*
X130099580Y-74772619D02*
X130147200Y-74820238D01*
X130147200Y-74820238D02*
X130194819Y-74915476D01*
X130194819Y-74915476D02*
X130194819Y-75010714D01*
X130194819Y-75010714D02*
X130147200Y-75105952D01*
X130147200Y-75105952D02*
X130099580Y-75153571D01*
X130099580Y-75153571D02*
X130004342Y-75201190D01*
X130004342Y-75201190D02*
X129813866Y-75248809D01*
X129813866Y-75248809D02*
X129575771Y-75248809D01*
X129575771Y-75248809D02*
X129385295Y-75201190D01*
X129385295Y-75201190D02*
X129290057Y-75153571D01*
X129290057Y-75153571D02*
X129242438Y-75105952D01*
X129242438Y-75105952D02*
X129194819Y-75010714D01*
X129623390Y-74105952D02*
X129575771Y-74201190D01*
X129575771Y-74201190D02*
X129528152Y-74248809D01*
X129528152Y-74248809D02*
X129432914Y-74296428D01*
X129432914Y-74296428D02*
X129385295Y-74296428D01*
X129385295Y-74296428D02*
X129290057Y-74248809D01*
X129290057Y-74248809D02*
X129242438Y-74201190D01*
X129242438Y-74201190D02*
X129194819Y-74105952D01*
X129194819Y-74105952D02*
X129194819Y-73915476D01*
X129194819Y-73915476D02*
X129242438Y-73820238D01*
X129242438Y-73820238D02*
X129290057Y-73772619D01*
X129290057Y-73772619D02*
X129385295Y-73725000D01*
X129385295Y-73725000D02*
X129432914Y-73725000D01*
X129432914Y-73725000D02*
X129528152Y-73772619D01*
X129528152Y-73772619D02*
X129575771Y-73820238D01*
X129575771Y-73820238D02*
X129623390Y-73915476D01*
X129623390Y-73915476D02*
X129623390Y-74105952D01*
X129623390Y-74105952D02*
X129671009Y-74201190D01*
X129671009Y-74201190D02*
X129718628Y-74248809D01*
X129718628Y-74248809D02*
X129813866Y-74296428D01*
X129813866Y-74296428D02*
X130004342Y-74296428D01*
X130004342Y-74296428D02*
X130099580Y-74248809D01*
X130099580Y-74248809D02*
X130147200Y-74201190D01*
X130147200Y-74201190D02*
X130194819Y-74105952D01*
X130194819Y-74105952D02*
X130194819Y-73915476D01*
X130194819Y-73915476D02*
X130147200Y-73820238D01*
X130147200Y-73820238D02*
X130099580Y-73772619D01*
X130099580Y-73772619D02*
X130004342Y-73725000D01*
X130004342Y-73725000D02*
X129813866Y-73725000D01*
X129813866Y-73725000D02*
X129718628Y-73772619D01*
X129718628Y-73772619D02*
X129671009Y-73820238D01*
X129671009Y-73820238D02*
X129623390Y-73915476D01*
X130290057Y-73534524D02*
X130290057Y-72772619D01*
X130147200Y-72582142D02*
X130194819Y-72439285D01*
X130194819Y-72439285D02*
X130194819Y-72201190D01*
X130194819Y-72201190D02*
X130147200Y-72105952D01*
X130147200Y-72105952D02*
X130099580Y-72058333D01*
X130099580Y-72058333D02*
X130004342Y-72010714D01*
X130004342Y-72010714D02*
X129909104Y-72010714D01*
X129909104Y-72010714D02*
X129813866Y-72058333D01*
X129813866Y-72058333D02*
X129766247Y-72105952D01*
X129766247Y-72105952D02*
X129718628Y-72201190D01*
X129718628Y-72201190D02*
X129671009Y-72391666D01*
X129671009Y-72391666D02*
X129623390Y-72486904D01*
X129623390Y-72486904D02*
X129575771Y-72534523D01*
X129575771Y-72534523D02*
X129480533Y-72582142D01*
X129480533Y-72582142D02*
X129385295Y-72582142D01*
X129385295Y-72582142D02*
X129290057Y-72534523D01*
X129290057Y-72534523D02*
X129242438Y-72486904D01*
X129242438Y-72486904D02*
X129194819Y-72391666D01*
X129194819Y-72391666D02*
X129194819Y-72153571D01*
X129194819Y-72153571D02*
X129242438Y-72010714D01*
X130194819Y-71439285D02*
X130147200Y-71534523D01*
X130147200Y-71534523D02*
X130099580Y-71582142D01*
X130099580Y-71582142D02*
X130004342Y-71629761D01*
X130004342Y-71629761D02*
X129718628Y-71629761D01*
X129718628Y-71629761D02*
X129623390Y-71582142D01*
X129623390Y-71582142D02*
X129575771Y-71534523D01*
X129575771Y-71534523D02*
X129528152Y-71439285D01*
X129528152Y-71439285D02*
X129528152Y-71296428D01*
X129528152Y-71296428D02*
X129575771Y-71201190D01*
X129575771Y-71201190D02*
X129623390Y-71153571D01*
X129623390Y-71153571D02*
X129718628Y-71105952D01*
X129718628Y-71105952D02*
X130004342Y-71105952D01*
X130004342Y-71105952D02*
X130099580Y-71153571D01*
X130099580Y-71153571D02*
X130147200Y-71201190D01*
X130147200Y-71201190D02*
X130194819Y-71296428D01*
X130194819Y-71296428D02*
X130194819Y-71439285D01*
X130147200Y-70248809D02*
X130194819Y-70344047D01*
X130194819Y-70344047D02*
X130194819Y-70534523D01*
X130194819Y-70534523D02*
X130147200Y-70629761D01*
X130147200Y-70629761D02*
X130099580Y-70677380D01*
X130099580Y-70677380D02*
X130004342Y-70724999D01*
X130004342Y-70724999D02*
X129718628Y-70724999D01*
X129718628Y-70724999D02*
X129623390Y-70677380D01*
X129623390Y-70677380D02*
X129575771Y-70629761D01*
X129575771Y-70629761D02*
X129528152Y-70534523D01*
X129528152Y-70534523D02*
X129528152Y-70344047D01*
X129528152Y-70344047D02*
X129575771Y-70248809D01*
X130194819Y-69820237D02*
X129194819Y-69820237D01*
X129813866Y-69724999D02*
X130194819Y-69439285D01*
X129528152Y-69439285D02*
X129909104Y-69820237D01*
X130147200Y-68629761D02*
X130194819Y-68724999D01*
X130194819Y-68724999D02*
X130194819Y-68915475D01*
X130194819Y-68915475D02*
X130147200Y-69010713D01*
X130147200Y-69010713D02*
X130051961Y-69058332D01*
X130051961Y-69058332D02*
X129671009Y-69058332D01*
X129671009Y-69058332D02*
X129575771Y-69010713D01*
X129575771Y-69010713D02*
X129528152Y-68915475D01*
X129528152Y-68915475D02*
X129528152Y-68724999D01*
X129528152Y-68724999D02*
X129575771Y-68629761D01*
X129575771Y-68629761D02*
X129671009Y-68582142D01*
X129671009Y-68582142D02*
X129766247Y-68582142D01*
X129766247Y-68582142D02*
X129861485Y-69058332D01*
X129528152Y-68296427D02*
X129528152Y-67915475D01*
X129194819Y-68153570D02*
X130051961Y-68153570D01*
X130051961Y-68153570D02*
X130147200Y-68105951D01*
X130147200Y-68105951D02*
X130194819Y-68010713D01*
X130194819Y-68010713D02*
X130194819Y-67915475D01*
X140626666Y-74679819D02*
X140626666Y-75394104D01*
X140626666Y-75394104D02*
X140579047Y-75536961D01*
X140579047Y-75536961D02*
X140483809Y-75632200D01*
X140483809Y-75632200D02*
X140340952Y-75679819D01*
X140340952Y-75679819D02*
X140245714Y-75679819D01*
X141626666Y-75679819D02*
X141055238Y-75679819D01*
X141340952Y-75679819D02*
X141340952Y-74679819D01*
X141340952Y-74679819D02*
X141245714Y-74822676D01*
X141245714Y-74822676D02*
X141150476Y-74917914D01*
X141150476Y-74917914D02*
X141055238Y-74965533D01*
X128038095Y-73058152D02*
X128038095Y-73724819D01*
X127800000Y-72677200D02*
X127561905Y-73391485D01*
X127561905Y-73391485D02*
X128180952Y-73391485D01*
X128466667Y-72724819D02*
X129133333Y-72724819D01*
X129133333Y-72724819D02*
X128704762Y-73724819D01*
X129704762Y-72724819D02*
X129800000Y-72724819D01*
X129800000Y-72724819D02*
X129895238Y-72772438D01*
X129895238Y-72772438D02*
X129942857Y-72820057D01*
X129942857Y-72820057D02*
X129990476Y-72915295D01*
X129990476Y-72915295D02*
X130038095Y-73105771D01*
X130038095Y-73105771D02*
X130038095Y-73343866D01*
X130038095Y-73343866D02*
X129990476Y-73534342D01*
X129990476Y-73534342D02*
X129942857Y-73629580D01*
X129942857Y-73629580D02*
X129895238Y-73677200D01*
X129895238Y-73677200D02*
X129800000Y-73724819D01*
X129800000Y-73724819D02*
X129704762Y-73724819D01*
X129704762Y-73724819D02*
X129609524Y-73677200D01*
X129609524Y-73677200D02*
X129561905Y-73629580D01*
X129561905Y-73629580D02*
X129514286Y-73534342D01*
X129514286Y-73534342D02*
X129466667Y-73343866D01*
X129466667Y-73343866D02*
X129466667Y-73105771D01*
X129466667Y-73105771D02*
X129514286Y-72915295D01*
X129514286Y-72915295D02*
X129561905Y-72820057D01*
X129561905Y-72820057D02*
X129609524Y-72772438D01*
X129609524Y-72772438D02*
X129704762Y-72724819D01*
D11*
X128666667Y-71813855D02*
X128400000Y-71432902D01*
X128209524Y-71813855D02*
X128209524Y-71013855D01*
X128209524Y-71013855D02*
X128514286Y-71013855D01*
X128514286Y-71013855D02*
X128590476Y-71051950D01*
X128590476Y-71051950D02*
X128628571Y-71090045D01*
X128628571Y-71090045D02*
X128666667Y-71166236D01*
X128666667Y-71166236D02*
X128666667Y-71280521D01*
X128666667Y-71280521D02*
X128628571Y-71356712D01*
X128628571Y-71356712D02*
X128590476Y-71394807D01*
X128590476Y-71394807D02*
X128514286Y-71432902D01*
X128514286Y-71432902D02*
X128209524Y-71432902D01*
X128971428Y-71090045D02*
X129009524Y-71051950D01*
X129009524Y-71051950D02*
X129085714Y-71013855D01*
X129085714Y-71013855D02*
X129276190Y-71013855D01*
X129276190Y-71013855D02*
X129352381Y-71051950D01*
X129352381Y-71051950D02*
X129390476Y-71090045D01*
X129390476Y-71090045D02*
X129428571Y-71166236D01*
X129428571Y-71166236D02*
X129428571Y-71242426D01*
X129428571Y-71242426D02*
X129390476Y-71356712D01*
X129390476Y-71356712D02*
X128933333Y-71813855D01*
X128933333Y-71813855D02*
X129428571Y-71813855D01*
D12*
X153949318Y-63539762D02*
X152679318Y-63539762D01*
X153828365Y-62209285D02*
X153888842Y-62269761D01*
X153888842Y-62269761D02*
X153949318Y-62451190D01*
X153949318Y-62451190D02*
X153949318Y-62572142D01*
X153949318Y-62572142D02*
X153888842Y-62753571D01*
X153888842Y-62753571D02*
X153767889Y-62874523D01*
X153767889Y-62874523D02*
X153646937Y-62935000D01*
X153646937Y-62935000D02*
X153405032Y-62995476D01*
X153405032Y-62995476D02*
X153223603Y-62995476D01*
X153223603Y-62995476D02*
X152981699Y-62935000D01*
X152981699Y-62935000D02*
X152860746Y-62874523D01*
X152860746Y-62874523D02*
X152739794Y-62753571D01*
X152739794Y-62753571D02*
X152679318Y-62572142D01*
X152679318Y-62572142D02*
X152679318Y-62451190D01*
X152679318Y-62451190D02*
X152739794Y-62269761D01*
X152739794Y-62269761D02*
X152800270Y-62209285D01*
X153949318Y-60999761D02*
X153949318Y-61725476D01*
X153949318Y-61362619D02*
X152679318Y-61362619D01*
X152679318Y-61362619D02*
X152860746Y-61483571D01*
X152860746Y-61483571D02*
X152981699Y-61604523D01*
X152981699Y-61604523D02*
X153042175Y-61725476D01*
D10*
X133469142Y-63042819D02*
X132992952Y-63042819D01*
X132992952Y-63042819D02*
X132992952Y-62042819D01*
X133802476Y-62519009D02*
X134135809Y-62519009D01*
X134278666Y-63042819D02*
X133802476Y-63042819D01*
X133802476Y-63042819D02*
X133802476Y-62042819D01*
X133802476Y-62042819D02*
X134278666Y-62042819D01*
X134707238Y-63042819D02*
X134707238Y-62042819D01*
X134707238Y-62042819D02*
X134945333Y-62042819D01*
X134945333Y-62042819D02*
X135088190Y-62090438D01*
X135088190Y-62090438D02*
X135183428Y-62185676D01*
X135183428Y-62185676D02*
X135231047Y-62280914D01*
X135231047Y-62280914D02*
X135278666Y-62471390D01*
X135278666Y-62471390D02*
X135278666Y-62614247D01*
X135278666Y-62614247D02*
X135231047Y-62804723D01*
X135231047Y-62804723D02*
X135183428Y-62899961D01*
X135183428Y-62899961D02*
X135088190Y-62995200D01*
X135088190Y-62995200D02*
X134945333Y-63042819D01*
X134945333Y-63042819D02*
X134707238Y-63042819D01*
D11*
X133521524Y-66911855D02*
X133521524Y-66111855D01*
X133521524Y-66111855D02*
X133712000Y-66111855D01*
X133712000Y-66111855D02*
X133826286Y-66149950D01*
X133826286Y-66149950D02*
X133902476Y-66226140D01*
X133902476Y-66226140D02*
X133940571Y-66302331D01*
X133940571Y-66302331D02*
X133978667Y-66454712D01*
X133978667Y-66454712D02*
X133978667Y-66568998D01*
X133978667Y-66568998D02*
X133940571Y-66721379D01*
X133940571Y-66721379D02*
X133902476Y-66797569D01*
X133902476Y-66797569D02*
X133826286Y-66873760D01*
X133826286Y-66873760D02*
X133712000Y-66911855D01*
X133712000Y-66911855D02*
X133521524Y-66911855D01*
X134740571Y-66911855D02*
X134283428Y-66911855D01*
X134512000Y-66911855D02*
X134512000Y-66111855D01*
X134512000Y-66111855D02*
X134435809Y-66226140D01*
X134435809Y-66226140D02*
X134359619Y-66302331D01*
X134359619Y-66302331D02*
X134283428Y-66340426D01*
D10*
X146313810Y-61079819D02*
X146885238Y-61079819D01*
X146599524Y-62079819D02*
X146599524Y-61079819D01*
X147218572Y-62079819D02*
X147218572Y-61079819D01*
X147694762Y-62079819D02*
X147694762Y-61079819D01*
X147694762Y-61079819D02*
X148075714Y-61079819D01*
X148075714Y-61079819D02*
X148170952Y-61127438D01*
X148170952Y-61127438D02*
X148218571Y-61175057D01*
X148218571Y-61175057D02*
X148266190Y-61270295D01*
X148266190Y-61270295D02*
X148266190Y-61413152D01*
X148266190Y-61413152D02*
X148218571Y-61508390D01*
X148218571Y-61508390D02*
X148170952Y-61556009D01*
X148170952Y-61556009D02*
X148075714Y-61603628D01*
X148075714Y-61603628D02*
X147694762Y-61603628D01*
X148599524Y-61079819D02*
X149218571Y-61079819D01*
X149218571Y-61079819D02*
X148885238Y-61460771D01*
X148885238Y-61460771D02*
X149028095Y-61460771D01*
X149028095Y-61460771D02*
X149123333Y-61508390D01*
X149123333Y-61508390D02*
X149170952Y-61556009D01*
X149170952Y-61556009D02*
X149218571Y-61651247D01*
X149218571Y-61651247D02*
X149218571Y-61889342D01*
X149218571Y-61889342D02*
X149170952Y-61984580D01*
X149170952Y-61984580D02*
X149123333Y-62032200D01*
X149123333Y-62032200D02*
X149028095Y-62079819D01*
X149028095Y-62079819D02*
X148742381Y-62079819D01*
X148742381Y-62079819D02*
X148647143Y-62032200D01*
X148647143Y-62032200D02*
X148599524Y-61984580D01*
X150170952Y-62079819D02*
X149599524Y-62079819D01*
X149885238Y-62079819D02*
X149885238Y-61079819D01*
X149885238Y-61079819D02*
X149790000Y-61222676D01*
X149790000Y-61222676D02*
X149694762Y-61317914D01*
X149694762Y-61317914D02*
X149599524Y-61365533D01*
X151170952Y-61984580D02*
X151123333Y-62032200D01*
X151123333Y-62032200D02*
X150980476Y-62079819D01*
X150980476Y-62079819D02*
X150885238Y-62079819D01*
X150885238Y-62079819D02*
X150742381Y-62032200D01*
X150742381Y-62032200D02*
X150647143Y-61936961D01*
X150647143Y-61936961D02*
X150599524Y-61841723D01*
X150599524Y-61841723D02*
X150551905Y-61651247D01*
X150551905Y-61651247D02*
X150551905Y-61508390D01*
X150551905Y-61508390D02*
X150599524Y-61317914D01*
X150599524Y-61317914D02*
X150647143Y-61222676D01*
X150647143Y-61222676D02*
X150742381Y-61127438D01*
X150742381Y-61127438D02*
X150885238Y-61079819D01*
X150885238Y-61079819D02*
X150980476Y-61079819D01*
X150980476Y-61079819D02*
X151123333Y-61127438D01*
X151123333Y-61127438D02*
X151170952Y-61175057D01*
X148694761Y-55405057D02*
X148599523Y-55357438D01*
X148599523Y-55357438D02*
X148504285Y-55262200D01*
X148504285Y-55262200D02*
X148361428Y-55119342D01*
X148361428Y-55119342D02*
X148266190Y-55071723D01*
X148266190Y-55071723D02*
X148170952Y-55071723D01*
X148218571Y-55309819D02*
X148123333Y-55262200D01*
X148123333Y-55262200D02*
X148028095Y-55166961D01*
X148028095Y-55166961D02*
X147980476Y-54976485D01*
X147980476Y-54976485D02*
X147980476Y-54643152D01*
X147980476Y-54643152D02*
X148028095Y-54452676D01*
X148028095Y-54452676D02*
X148123333Y-54357438D01*
X148123333Y-54357438D02*
X148218571Y-54309819D01*
X148218571Y-54309819D02*
X148409047Y-54309819D01*
X148409047Y-54309819D02*
X148504285Y-54357438D01*
X148504285Y-54357438D02*
X148599523Y-54452676D01*
X148599523Y-54452676D02*
X148647142Y-54643152D01*
X148647142Y-54643152D02*
X148647142Y-54976485D01*
X148647142Y-54976485D02*
X148599523Y-55166961D01*
X148599523Y-55166961D02*
X148504285Y-55262200D01*
X148504285Y-55262200D02*
X148409047Y-55309819D01*
X148409047Y-55309819D02*
X148218571Y-55309819D01*
X149599523Y-55309819D02*
X149028095Y-55309819D01*
X149313809Y-55309819D02*
X149313809Y-54309819D01*
X149313809Y-54309819D02*
X149218571Y-54452676D01*
X149218571Y-54452676D02*
X149123333Y-54547914D01*
X149123333Y-54547914D02*
X149028095Y-54595533D01*
X149434523Y-70009580D02*
X149386904Y-70057200D01*
X149386904Y-70057200D02*
X149244047Y-70104819D01*
X149244047Y-70104819D02*
X149148809Y-70104819D01*
X149148809Y-70104819D02*
X149005952Y-70057200D01*
X149005952Y-70057200D02*
X148910714Y-69961961D01*
X148910714Y-69961961D02*
X148863095Y-69866723D01*
X148863095Y-69866723D02*
X148815476Y-69676247D01*
X148815476Y-69676247D02*
X148815476Y-69533390D01*
X148815476Y-69533390D02*
X148863095Y-69342914D01*
X148863095Y-69342914D02*
X148910714Y-69247676D01*
X148910714Y-69247676D02*
X149005952Y-69152438D01*
X149005952Y-69152438D02*
X149148809Y-69104819D01*
X149148809Y-69104819D02*
X149244047Y-69104819D01*
X149244047Y-69104819D02*
X149386904Y-69152438D01*
X149386904Y-69152438D02*
X149434523Y-69200057D01*
D11*
X148991667Y-68087664D02*
X148953571Y-68125760D01*
X148953571Y-68125760D02*
X148839286Y-68163855D01*
X148839286Y-68163855D02*
X148763095Y-68163855D01*
X148763095Y-68163855D02*
X148648809Y-68125760D01*
X148648809Y-68125760D02*
X148572619Y-68049569D01*
X148572619Y-68049569D02*
X148534524Y-67973379D01*
X148534524Y-67973379D02*
X148496428Y-67820998D01*
X148496428Y-67820998D02*
X148496428Y-67706712D01*
X148496428Y-67706712D02*
X148534524Y-67554331D01*
X148534524Y-67554331D02*
X148572619Y-67478140D01*
X148572619Y-67478140D02*
X148648809Y-67401950D01*
X148648809Y-67401950D02*
X148763095Y-67363855D01*
X148763095Y-67363855D02*
X148839286Y-67363855D01*
X148839286Y-67363855D02*
X148953571Y-67401950D01*
X148953571Y-67401950D02*
X148991667Y-67440045D01*
X149753571Y-68163855D02*
X149296428Y-68163855D01*
X149525000Y-68163855D02*
X149525000Y-67363855D01*
X149525000Y-67363855D02*
X149448809Y-67478140D01*
X149448809Y-67478140D02*
X149372619Y-67554331D01*
X149372619Y-67554331D02*
X149296428Y-67592426D01*
D10*
X137513095Y-61883152D02*
X137513095Y-62549819D01*
X137275000Y-61502200D02*
X137036905Y-62216485D01*
X137036905Y-62216485D02*
X137655952Y-62216485D01*
X137941667Y-61549819D02*
X138608333Y-61549819D01*
X138608333Y-61549819D02*
X138179762Y-62549819D01*
X139179762Y-61549819D02*
X139275000Y-61549819D01*
X139275000Y-61549819D02*
X139370238Y-61597438D01*
X139370238Y-61597438D02*
X139417857Y-61645057D01*
X139417857Y-61645057D02*
X139465476Y-61740295D01*
X139465476Y-61740295D02*
X139513095Y-61930771D01*
X139513095Y-61930771D02*
X139513095Y-62168866D01*
X139513095Y-62168866D02*
X139465476Y-62359342D01*
X139465476Y-62359342D02*
X139417857Y-62454580D01*
X139417857Y-62454580D02*
X139370238Y-62502200D01*
X139370238Y-62502200D02*
X139275000Y-62549819D01*
X139275000Y-62549819D02*
X139179762Y-62549819D01*
X139179762Y-62549819D02*
X139084524Y-62502200D01*
X139084524Y-62502200D02*
X139036905Y-62454580D01*
X139036905Y-62454580D02*
X138989286Y-62359342D01*
X138989286Y-62359342D02*
X138941667Y-62168866D01*
X138941667Y-62168866D02*
X138941667Y-61930771D01*
X138941667Y-61930771D02*
X138989286Y-61740295D01*
X138989286Y-61740295D02*
X139036905Y-61645057D01*
X139036905Y-61645057D02*
X139084524Y-61597438D01*
X139084524Y-61597438D02*
X139179762Y-61549819D01*
D11*
X138141667Y-60638855D02*
X137875000Y-60257902D01*
X137684524Y-60638855D02*
X137684524Y-59838855D01*
X137684524Y-59838855D02*
X137989286Y-59838855D01*
X137989286Y-59838855D02*
X138065476Y-59876950D01*
X138065476Y-59876950D02*
X138103571Y-59915045D01*
X138103571Y-59915045D02*
X138141667Y-59991236D01*
X138141667Y-59991236D02*
X138141667Y-60105521D01*
X138141667Y-60105521D02*
X138103571Y-60181712D01*
X138103571Y-60181712D02*
X138065476Y-60219807D01*
X138065476Y-60219807D02*
X137989286Y-60257902D01*
X137989286Y-60257902D02*
X137684524Y-60257902D01*
X138903571Y-60638855D02*
X138446428Y-60638855D01*
X138675000Y-60638855D02*
X138675000Y-59838855D01*
X138675000Y-59838855D02*
X138598809Y-59953140D01*
X138598809Y-59953140D02*
X138522619Y-60029331D01*
X138522619Y-60029331D02*
X138446428Y-60067426D01*
D13*
X150485000Y-73955000D02*
X151120000Y-74590000D01*
X130800000Y-73955000D02*
X150485000Y-73955000D01*
X151120000Y-74590000D02*
X151120000Y-76495000D01*
X151120000Y-76495000D02*
X130800000Y-76495000D01*
X130800000Y-76495000D02*
X130800000Y-73955000D01*
X127200000Y-70650000D02*
X130400000Y-70650000D01*
X127200000Y-72250000D02*
X127200000Y-70650000D01*
X130400000Y-70650000D02*
X130400000Y-72250000D01*
X130400000Y-72250000D02*
X127200000Y-72250000D01*
X146505000Y-64155000D02*
X146505000Y-64185000D01*
X146505000Y-64185000D02*
X146920000Y-65425000D01*
X146920000Y-65425000D02*
X148920000Y-65425000D01*
X148920000Y-65425000D02*
X150920000Y-65425000D01*
X150920000Y-65425000D02*
X151335000Y-64185000D01*
X151335000Y-64155000D02*
X151335000Y-64155000D01*
X151335000Y-64185000D02*
X151335000Y-64155000D01*
X146505000Y-64155000D02*
G75*
G02*
X151335000Y-64155000I2415000J0D01*
G01*
X136612000Y-68017694D02*
X136612000Y-65078306D01*
X136612000Y-68017694D02*
G75*
G02*
X136611954Y-65078228I-2500000J1469694D01*
G01*
X136612000Y-66548000D02*
G75*
G02*
X131612000Y-66548000I-2500000J0D01*
G01*
X131612000Y-66548000D02*
G75*
G02*
X136612000Y-66548000I2500000J0D01*
G01*
X143790000Y-55975000D02*
X143790000Y-60375000D01*
X143790000Y-57245000D02*
X153790000Y-57245000D01*
X143790000Y-60375000D02*
X153790000Y-60375000D01*
X146940000Y-55975000D02*
X146940000Y-57245000D01*
X150640000Y-55975000D02*
X150640000Y-57245000D01*
X153790000Y-55975000D02*
X143790000Y-55975000D01*
X153790000Y-60375000D02*
X153790000Y-55975000D01*
X147525000Y-67000000D02*
X150725000Y-67000000D01*
X147525000Y-68600000D02*
X147525000Y-67000000D01*
X150725000Y-67000000D02*
X150725000Y-68600000D01*
X150725000Y-68600000D02*
X147525000Y-68600000D01*
X136675000Y-59475000D02*
X139875000Y-59475000D01*
X136675000Y-61075000D02*
X136675000Y-59475000D01*
X139875000Y-59475000D02*
X139875000Y-61075000D01*
X139875000Y-61075000D02*
X136675000Y-61075000D01*
M02*
